<mxfile host="app.diagrams.net" modified="2023-03-21T16:18:36.470Z" agent="5.0 (Macintosh; Intel Mac OS X 10_15_7) AppleWebKit/605.1.15 (KHTML, like Gecko) Version/16.3 Safari/605.1.15" etag="kRarNDzwEpc2UqnbVNh2" version="21.0.8" type="github">
  <diagram id="C5RBs43oDa-KdzZeNtuy" name="Page-1">
    <mxGraphModel dx="954" dy="647" grid="1" gridSize="10" guides="1" tooltips="1" connect="1" arrows="1" fold="1" page="1" pageScale="1" pageWidth="827" pageHeight="1169" math="0" shadow="0">
      <root>
        <mxCell id="WIyWlLk6GJQsqaUBKTNV-0" />
        <mxCell id="WIyWlLk6GJQsqaUBKTNV-1" parent="WIyWlLk6GJQsqaUBKTNV-0" />
        <mxCell id="H976XYkogMRUlkVDh5GO-0" value="" style="shape=image;verticalLabelPosition=bottom;labelBackgroundColor=default;verticalAlign=top;aspect=fixed;imageAspect=0;image=data:image/png,iVBORw0KGgoAAAANSUhEUgAAAHwAAAD+CAYAAAD4ZmFtAAAMQGlDQ1BJQ0MgUHJvZmlsZQAASImVVwdYU8kWnluSkEBoAQSkhN4EkRpASggtgPQiiEpIAoQSYyCo2JFFBdeCigjY0FURxQ6IBUXsLIq9LxZUlHWxYFfepICu+8r3zvfNvf/958x/zpw7twwAasc5IlEOqg5ArjBfHBPsTx+flEwnPQUo0AMIIAAqh5snYkZFhQNoQ+e/27vr0BPaFXup1j/7/6tp8Ph5XACQKIjTeHncXIgPAIDXcEXifACIUt5sWr5IimEDWmKYIMSLpDhDjmukOE2O98h84mJYELcDoKTC4YgzAFC9BHl6ATcDaqj2Q+wo5AmEAKjRIfbJzZ3CgzgVYmvoI4JYqs9I+0En42+aacOaHE7GMJbPRWZKAYI8UQ5nxv9Zjv9tuTmSoRiWsKlkikNipHOGdbuZPSVMilUg7hOmRURCrAnxBwFP5g8xSsmUhMTL/VEDbh4L1gzoQOzI4wSEQWwAcZAwJyJcwaelC4LYEMMVgk4X5LPjINaFeBE/LzBW4bNRPCVGEQttTBezmAr+LEcsiyuNdV+SHc9U6L/O5LMV+phqYWZcIsQUiM0LBAkREKtC7JCXHRum8BlbmMmKGPIRS2Kk+ZtDHMMXBvvL9bGCdHFQjMK/NDdvaL7YxkwBO0KB9+VnxoXI64O1czmy/OFcsEt8ITN+SIefNz58aC48fkCgfO7YM74wPlah80GU7x8jH4tTRDlRCn/clJ8TLOVNIXbJK4hVjMUT8uGClOvj6aL8qDh5nnhhFic0Sp4PvhyEAxYIAHQggS0NTAFZQNDZ19QHr+Q9QYADxCAD8IG9ghkakSjrEcJjLCgEf0LEB3nD4/xlvXxQAPmvw6z8aA/SZb0FshHZ4AnEuSAM5MBriWyUcDhaAngMGcE/onNg48J8c2CT9v97foj9zjAhE65gJEMR6WpDnsRAYgAxhBhEtMH1cR/cCw+HRz/YnHAG7jE0j+/+hCeELsJDwjVCN+HWZEGR+Kcsx4FuqB+kqEXaj7XALaGmK+6Pe0N1qIzr4PrAHneBcZi4L4zsClmWIm9pVeg/af9tBj/cDYUf2ZGMkkeQ/cjWP49UtVV1HVaR1vrH+shzTRuuN2u45+f4rB+qz4PnsJ89sUXYfuwMdgI7hx3BmgAda8WasQ7sqBQPr67HstU1FC1Glk821BH8I97QnZVWMs+x3rHX8Yu8L58/XfqOBqwpohliQUZmPp0Jvwh8OlvIdRhFd3J0cgZA+n2Rv77eRMu+G4hOx3duwR8AeLcODg4e/s6FtgKw1x0+/oe+c9YM+OlQBuDsIa5EXCDncOmBAN8SavBJ0wNGwAxYw/k4ATfgBfxAIAgFkSAOJIFJMPtMuM7FYBqYBeaDElAGloPVoApsAJvBdrAL7ANN4Ag4AU6DC+ASuAbuwNXTA16AfvAOfEYQhIRQERqihxgjFogd4oQwEB8kEAlHYpAkJBXJQISIBJmFLEDKkHKkCtmE1CF7kUPICeQc0oXcQh4gvchr5BOKoSqoFmqIWqKjUQbKRMPQOHQimoFORQvRYnQpWonWojvRRvQEegG9hnajL9ABDGDKmA5mgtljDIyFRWLJWDomxuZgpVgFVos1YC3wPl/BurE+7CNOxGk4HbeHKzgEj8e5+FR8Dr4Er8K34414O34Ff4D3498IVIIBwY7gSWATxhMyCNMIJYQKwlbCQcIp+Cz1EN4RiUQdohXRHT6LScQs4kziEuI64m7icWIX8RFxgEQi6ZHsSN6kSBKHlE8qIa0l7SS1ki6TekgflJSVjJWclIKUkpWESkVKFUo7lI4pXVZ6qvSZrE62IHuSI8k88gzyMvIWcgv5IrmH/JmiQbGieFPiKFmU+ZRKSgPlFOUu5Y2ysrKpsodytLJAeZ5ypfIe5bPKD5Q/qmiq2KqwVFJUJCpLVbapHFe5pfKGSqVaUv2oydR86lJqHfUk9T71gypN1UGVrcpTnatardqoeln1pRpZzUKNqTZJrVCtQm2/2kW1PnWyuqU6S52jPke9Wv2Q+g31AQ2axhiNSI1cjSUaOzTOaTzTJGlaagZq8jSLNTdrntR8RMNoZjQWjUtbQNtCO0Xr0SJqWWmxtbK0yrR2aXVq9WtrartoJ2hP167WPqrdrYPpWOqwdXJ0luns07mu82mE4QjmCP6IxSMaRlwe8V53pK6fLl+3VHe37jXdT3p0vUC9bL0Vek169/RxfVv9aP1p+uv1T+n3jdQa6TWSO7J05L6Rtw1QA1uDGIOZBpsNOgwGDI0Mgw1FhmsNTxr2GekY+RllGa0yOmbUa0wz9jEWGK8ybjV+TtemM+k59Ep6O73fxMAkxERissmk0+SzqZVpvGmR6W7Te2YUM4ZZutkqszazfnNj83Hms8zrzW9bkC0YFpkWayzOWLy3tLJMtFxo2WT5zErXim1VaFVvddeaau1rPdW61vqqDdGGYZNts87mki1q62qbaVtte9EOtXOzE9its+saRRjlMUo4qnbUDXsVe6Z9gX29/QMHHYdwhyKHJoeXo81HJ49eMfrM6G+Oro45jlsc74zRHBM6pmhMy5jXTrZOXKdqp6vOVOcg57nOzc6vXOxc+C7rXW660lzHuS50bXP96ubuJnZrcOt1N3dPda9xv8HQYkQxljDOehA8/D3mehzx+Ojp5pnvuc/zLy97r2yvHV7PxlqN5Y/dMvaRt6k3x3uTd7cP3SfVZ6NPt6+JL8e31vehn5kfz2+r31OmDTOLuZP50t/RX+x/0P89y5M1m3U8AAsIDigN6AzUDIwPrAq8H2QalBFUH9Qf7Bo8M/h4CCEkLGRFyA22IZvLrmP3h7qHzg5tD1MJiw2rCnsYbhsuDm8Zh44LHbdy3N0IiwhhRFMkiGRHroy8F2UVNTXqcDQxOiq6OvpJzJiYWTFnYmmxk2N3xL6L849bFncn3jpeEt+WoJaQklCX8D4xILE8sXv86PGzx19I0k8SJDUnk5ITkrcmD0wInLB6Qk+Ka0pJyvWJVhOnTzw3SX9SzqSjk9UmcybvTyWkJqbuSP3CieTUcgbS2Gk1af1cFncN9wXPj7eK18v35pfzn6Z7p5enP8vwzliZ0Zvpm1mR2SdgCaoEr7JCsjZkvc+OzN6WPZiTmLM7Vyk3NfeQUFOYLWyfYjRl+pQukZ2oRNQ91XPq6qn94jDx1jwkb2Jec74W/JHvkFhLfpE8KPApqC74MC1h2v7pGtOF0ztm2M5YPONpYVDhbzPxmdyZbbNMZs2f9WA2c/amOcictDltc83mFs/tmRc8b/t8yvzs+b8XORaVF71dkLigpdiweF7xo1+Cf6kvUS0Rl9xY6LVwwyJ8kWBR52LnxWsXfyvllZ4vcyyrKPuyhLvk/K9jfq38dXBp+tLOZW7L1i8nLhcuv77Cd8X2co3ywvJHK8etbFxFX1W66u3qyavPVbhUbFhDWSNZ010ZXtm81nzt8rVfqjKrrlX7V++uMahZXPN+HW/d5fV+6xs2GG4o2/Bpo2DjzU3BmxprLWsrNhM3F2x+siVhy5nfGL/VbdXfWrb16zbhtu7tMdvb69zr6nYY7FhWj9ZL6nt3puy8tCtgV3ODfcOm3Tq7y/aAPZI9z/em7r2+L2xf237G/oYDFgdqDtIOljYijTMa+5sym7qbk5q7DoUeamvxajl42OHwtiMmR6qPah9ddoxyrPjYYGth68Bx0fG+ExknHrVNbrtzcvzJq+3R7Z2nwk6dPR10+uQZ5pnWs95nj5zzPHfoPON80wW3C40drh0Hf3f9/WCnW2fjRfeLzZc8LrV0je06dtn38okrAVdOX2VfvXAt4lrX9fjrN2+k3Oi+ybv57FbOrVe3C25/vjPvLuFu6T31exX3De7X/mHzx+5ut+6jDwIedDyMfXjnEffRi8d5j7/0FD+hPql4avy07pnTsyO9Qb2Xnk943vNC9OJzX8mfGn/WvLR+eeAvv786+sf397wSvxp8veSN3pttb13etg1EDdx/l/vu8/vSD3oftn9kfDzzKfHT08/TvpC+VH61+dryLezb3cHcwUERR8yR/QpgsKHp6QC83gYANQkAGtyfUSbI938yQ+R7VhkC/wnL94gycwOgAf6/R/fBv5sbAOzZArdfUF8tBYAoKgBxHgB1dh5uQ3s12b5SakS4D9gY+DUtNw38G5PvOX/I++czkKq6gJ/P/wI/SnwtEmQJdAAAAIplWElmTU0AKgAAAAgABAEaAAUAAAABAAAAPgEbAAUAAAABAAAARgEoAAMAAAABAAIAAIdpAAQAAAABAAAATgAAAAAAAACQAAAAAQAAAJAAAAABAAOShgAHAAAAEgAAAHigAgAEAAAAAQAAAHygAwAEAAAAAQAAAP4AAAAAQVNDSUkAAABTY3JlZW5zaG90S51hfQAAAAlwSFlzAAAWJQAAFiUBSVIk8AAAAdZpVFh0WE1MOmNvbS5hZG9iZS54bXAAAAAAADx4OnhtcG1ldGEgeG1sbnM6eD0iYWRvYmU6bnM6bWV0YS8iIHg6eG1wdGs9IlhNUCBDb3JlIDYuMC4wIj4KICAgPHJkZjpSREYgeG1sbnM6cmRmPSJodHRwOi8vd3d3LnczLm9yZy8xOTk5LzAyLzIyLXJkZi1zeW50YXgtbnMjIj4KICAgICAgPHJkZjpEZXNjcmlwdGlvbiByZGY6YWJvdXQ9IiIKICAgICAgICAgICAgeG1sbnM6ZXhpZj0iaHR0cDovL25zLmFkb2JlLmNvbS9leGlmLzEuMC8iPgogICAgICAgICA8ZXhpZjpQaXhlbFlEaW1lbnNpb24+MjU0PC9leGlmOlBpeGVsWURpbWVuc2lvbj4KICAgICAgICAgPGV4aWY6UGl4ZWxYRGltZW5zaW9uPjEyNDwvZXhpZjpQaXhlbFhEaW1lbnNpb24+CiAgICAgICAgIDxleGlmOlVzZXJDb21tZW50PlNjcmVlbnNob3Q8L2V4aWY6VXNlckNvbW1lbnQ+CiAgICAgIDwvcmRmOkRlc2NyaXB0aW9uPgogICA8L3JkZjpSREY+CjwveDp4bXBtZXRhPgp2DaL/AAAAHGlET1QAAAACAAAAAAAAAH8AAAAoAAAAfwAAAH8AAHGruoMDfgAAQABJREFUeAHkvXeAZkdxt1uTZ3bChpnNOa92lRNg2WCUyCY6gAkyNhd/2J/B2MBnGxDggMCAMdFgXxsECJtoyyaLIJSFhITy5ryrzXl38tznqX7P7OxqlTB/3Ovbu++85z2nT3d1/aqqq6u7z6kbIcX/S5Ok+RkaGhr9PPjgg/GNb3wjrrzyyp+L6ne/+93xvOc9L0477bRoaGgY/dTV1YWf/+mp7v8LgA8PDyfgg4OD8dBDDyXg73znO38ubN7znvck4MuWLYvGxsYEvL6+PsH+/wXgQyODaPhxya70fe++/dHfPxDjxo1LLYvhwWRQG78bGxo5N8xtaMWYewsCFFcVMgYSlWd4uBgTGXzk6LHo6+8LjwXS7/q6+mhpbY3WlmYApvwopI1wXGl5Afyb8fMC/q53vTOe/7znxrIVy2Okvo62oOVU0xiA7scfJgmuNH6k4g/XRttWzo1wz9CItFd5gjO0tV7aR2KQY+wU50ai6SReFQs2TDXeUaxZb19fDACJ1kcBtNz6Bu7Oqkeiuak5z3uvJ0+2TI8ntHWDCTi0JTGFtP7+/njwwZWxd+/emDJlSnR3d8fw0CCFR0yYMCHa2sYlgfzJdEIlSYhgnZgEVNBMNmD9+o2xes3aaGpqjKlTp8b48eNpcsS4trbo6OiIpoYmWUCbhqibT03L165dE9/+9nfjrW99W5b1ZP+8851vjxe84Pmx9PTTABew69FyGN5s5XyL7RAfsIqGKEKdhFUVjYJfAB7kIuKa/+o4rlSgngJG+AzDtMJVQMzrVUHixXUUR0E3j23cu29fHD3an9e8rhVqamrKa30IQxv8aeXTruLVF6GwRDEw/wlYHK9q9OgRgNvMQ4cPxn33PRD70HLBmDFjJpoQqYldXV3R0d6RBJ5cQQoNDUjtH61CYSKNIcj71qxbF2sA3DRx4sSYO3duarkEj+8aj5a3xBAMGB4egvloeA3wnTt3xp13/pR718SxY8cK07hmmeblKwXrwIEDSW+DlgNg29vb01rNnzcvLnjqBTF3wYJoaGyhzsK0xqSyDs2MGJBcPs18BMJk2zyy/JLKwXAd/kVeKaBTmjdFKrgC4w11Cg7//VS3j/kWaBViAIu6/eGHYxC98Dbb4/nmZikJBOFoCoBtkWetzS1jSvGenxPwnbt2xsqVq7OCSZMmxezZc6gIDR0sJl4NNCmZVRrbEFhfnc7v6towBGmibODqteti06ZNKZGWN3v27GyMRKvtbS2tlGKr1QKBLM6bUr5nz944CKBaIq1GAbuYfSs8duxobN++Pa+1IDiazImTJmA9AB3tmIYAT5rcEw1YF1MTAqFBFw4VGCOb5xuBMmngl9chAYpObJsCMQLoI5j1EeqpQ2HMnX9tL5+RkWLY6zTNWfKJfwpf6qO39xh0P0weyqEs+WTbNO9NmPK+vt7kkQIgj9pb24oU1Yoz78+l4Rs3bYyNGzdTQV+MQ5oWLlwQTZgWzbqVaWI0NUpfViIzak2RVdUx9WdK9tWAlvh+yt2wcWOorZalmRJwibWRSrDnLbKOfrZ0BQJeNGYQf2Kwf7BmAbQCBYRkDjTt278vtm7Zyr31qdVpNcZ3RasMoszWlraY2N1FmwRoEJMOxb29qX7WxwnoVpj5ps4RyhcsGsz9Nqr28Yv8eQ+WIupaOYH55d4hrlnMcZXg0qMkWkaJw3HkyJF4ePsOyqO3t2qEWdrlhZ9BFE5BqNrT3jou2+jvKo09rs6N/a7TabMN/vEzODgc6zesi61bH86C1ZAFC+anibVC8/TCHJmssyUhAl9VlIWNqaG6JtBjr+2jr7Ic71d4NFEKk2WquX5bh/d7r8cjqe0F4CwLuu0DTVk/DR8cKDTu2rkLk90w6nQqRH7M3oDT2dAwFK2NtOHQ7ti7aX10jAxE07B9J0wFpaFhABzBOvCvHuRkvh+6/No5rwsKNDa3R99IQxyra4yjdAS9fI80tMSx/l4EszcGeo9mO5NSsCk8a+BePAD4KV1aUnkgT4ZwIuRBtpnrrTiydqXVOfnRPq49OrGMHtt2P5ZV4TAGghMOT+jD9x86GOvXrY9DBw/B8KFkjIUsmL8AE9IZAwPFhO7YsSML1wJUgFTAyq3sN5F8vXIJkChBNXkMn+LY0SPZAEHOBtBoRwQm+1+l3fKbmuzLh9LCeM17qTyZrwZbV5Xs55sAeWBgMA4eOkQXNBhdnZ2A1IQpb41OjutAbABm9h7eG63As+q2H8ed3/9mLJpI/SP9UT/YB6AI1Ugzyis99M3ZFqxKzXGt06ODhpLqo7G5M/YP1MVugN5ybDh29CNILR0xjKBo+/qOHUoHy/vlSSNdiXzp7+uH1oHkjd3a+eefH5deemm0tLTjP+1LwAVdwHWcvUeBkGcq4gR8HS2vlHjtCQE+MDSAjmPWMEkC/eBDK+PI4SMQ0QQQeodD6VBNndJNZX1Zod67DkRKPAy3IgH3MyTIlJWEcF5CTII69ruv71gc2L8/JVcJF2w/lqkk79hBX8b9DY30XTgz2aXQeK8346xkt1Erv7IEevwDA97fF30w5hgf+zqZY9kTJoyHNgdHlAMIrYMH467vXxs3fPVLceaUSdGDD9TCtZEhTadt50SRMDjKef45jJMn1uFow+Ec3Iv9w42xs74tNg/Wx87hptjZTx74kc3GrDQDjLRrEewC0lrV2jOWRy984Qvjuc96Xjpv8tgk4I6OFNjDhw+XbhV8JtA2wa+Arr7zpkf5U0d/OOLwQQL2A8Dq1WvTORiiE6p3yEKjZs2aGVOn9HC+aPgtt9wSmzdvLmZqDNGCKtgKi0kgKrOkhttgtVbChmBqV2cH/sGiBEWTpVnzmg391re+VQDH/A7aj3LestSISniqOqqGer4NTXbYKH09Pd0xbdr09BHGw7AetGTcuE7AG4lDu7dFS/+BuPf678UPr7k6zprcHTM626K7vTX6EZQmBb6uuUa/IJUuz2GilmSA7q3R/lt/AgHY39AcO+rbY1dLV+xp6oi712+NPqyd1qGO6zqrtl9w/diW6thvrynol112efzWb/x2bNu+Nfbt3ZftFmiHx9OmTUveVFbV0YxOaNX+ZPrj/EmTbj/YUIeUHtif3rlmI3uqmoPQ09MTswHdPkfCtm3blmN0GVwRXpn0hrQMBmZUDTVcb7McV4R5z9BQfwYR1O4CVFtqofTa8LVr1ya4TWiz3Yt1l4BPqlw0IdnHk+aMMjHhjlEVriNognnSjMNQ6ZswAT8Bx02TumPTuujdvTkeuOEHceNXvhznT58Wc7k+e+qUOHrkUDpb2iTH00OAalvALrVcDW/AXAsmpgLAj8UevPSHGzpiZ8uE2N3UGbev2sR4Hv/Ge7AGySe6m7EBGoF2WCjtXpc/S5csjde8+ndi7559sWXrljynIsyYMSMdW9tcdQPjaEvVvkp4vP5YKZ02AVHLD9HvrXxodZrt4g0Wc93t0GzO7CRMDbVwQWmAsZq4CkhNp4xVWATRYxuDCeGc4BeHycbJCMvo4+O35wSqkna/ddw8Z59sec3NdjPCoOda8mqFLLfQUKJ2Nth8Cq7lSrN16KWPwzzWMYzauhHHdP0Dcf/N18ft1/5nnAfgi6dMjdMXL4kDB/fHMNYMnw7gsSyD/Ul/PVpueSqIdJW20g8PHY2DAyOxE4uwpbE9drRNQMMfJh/edfIDJxQhMRWAi9AqxDqQFeDyUyv08t96ZRw8eICRzAZGRsMxBSFchCWcOXNmjKdbOnrkaNbd1NQaE/ndiCBBJu2S9xyU4rM+/8jLKqVJ94fDgkOHBbwENGSqHxs1niHN/Pnza+CNpFOlcAiwjpPM1nmyP6m89upeu4QEGIRVeiuvBMSyvVYBLkgJNFZEsHSuLNPkNfP7MY8MN/nblH0jVkqtM6/lWo/J8rVMjmVb0KjmlgZA3RU/+M618dBPbo4Hf/SjWI52r2B8/rTzz40D+Cj9jOUbAbEeZRgepk+nLCinTMbmHKegMayrr9e84y/gO+wYqo/NLeNibbTFqp0HGIO3RDP1Ddf10c/rF6jhpc3SVZl4j022S6G+5OJL4zBO65YtW/K8Q9bTV6yIGTNnZBDMLs92N9KNTMCzb6FdY1FGd09Illul48OyEwA/msTJLwvW7C5atCCZ6I27d++Oh4kIyVi10AIroAWicsA8ZyoAe6QTUwSkIsJvy7Dxgls0eiC9VD1V6zD57aeqyzqkzU8py76x/K7yCbrJsq1Delpb27MOfOf4zn9+Ne698Ydx7w++F2dixRbCvEsuemocYRzfpxZx3wiaWWc5OLaa8mKxoIeuK+tF7gwMHSMusK1vODa3dsQqgF+7m/txAVvJNwTg/Qz56jD7tq+iy2GuGn8in+riGc/41XTODEzJO6OQZ515ZkzHrM+ZMydNupjCzTTpDtH+W4ArQZoatdQkEEuXLqGBRQp37dpFYGZjNrgC3IbIAL/1Kg2maAGq82PBMZ8N8eN1y/DjfdalRhqUMVpmOvlefyuEMspPC5MtRZjK7FcRgHKfx5ZdNJy4dGsZmrUgi9df919x23e+Eff88HtxWkd7zO/qiGeef040YsIHHD9DB44BWgmtOJkjCgA8UcMdwdRjSu2t6tD03oHh2EQMfD3h2q0M0+7fujcBb4GPw/WYdAQGccxuUFpsu8NcRxy2wd/SqhX65V/+FZyzw7FhwwZ4MZhxkDPPOhNzPxkNn548spvTyhhT1+E9rsPQ8+Q0vIRU9bTteyvmnXbasvSABUNzvm7dupRUr0usUisQEq+GCaRa2EKIVDPlNfOWTxEcfQfzeq+gCLa/TQqVgJvfa1U91bfCZF0yrKNjXH43MoSryjNfVaf3W4fMbG5jYoZ7GuHKT2/5cXzva1+MewF8NsOuZZMnxLkLZsfk9pYYoA8/yohAoI0cjGDWhwxyZ1Kw0XDq16o0InDHAHw3g7Q79h+OfZOmx6odxPIH6D64PtJAGS1E/dB+lcnQb5VKEKh0V9W5Zzz9mXRpfalUCsfCRQtjxfIVaHMH4/Ge9NidR5DH8mzSxEmlrRQApY8PuBLrP8d4Om2lj9B8FpAEdPHiRVmhHqKVrV69OrXmOIMltww3PCcxHR2d+e1QSXCqVAEhKAJhmSaJF0h/G3jRipgUMsszv6loaxEirYKCpUMmCGPzpRcNTeYX9EZoaCWe3kxotY4Ay/oH74n/ZEh25w++HTPqh2I5gC+f6nhcZ7Q+DqvhhD3r9aK53/67JHSV/jPNOhqsAPUSodw50hh3Hz4WW1vHx9bDRAz70Fh42NDMOHwcgRz+CWTxKUqUTcBtl3TLC9Pllz0nsdi8GU8fp02TfiYm3XYajXN4VgEuvyaMn5D3Q6AQPDnAV61ck8wea9IFfOHChVTWBRg6VMdytkrCBbcCQmJlroAKnhqlB2kUyQaZqmsCYPJeAfY+iTev5dogrYj5vV4Jlr8ri2KZ1mP30d7emUI1th7LNq9lW6b9ZbvWAA+/DTO8Y+OmuOYfPx43ffe/YkZrfSwm2rasZ3xMaSJfq6HRGuDOiCmUAK8NH3b+W5NO+NSZuAYEyeDLtv6RuOvQkdg2bkJsO2yEbTjaiBQ2EmIfrhsksHU42yNfTGV4V7z9Qqtj88Z4zrOflz7Mli1bUlDnzp0T55xzbnZjKs/06TNol0NbrVZjBmWcXVS/U0kfz6SP1XABLxpeJE+G+Zk/fy7mZBIElOCJYKiFAlGBIPM9lsEem9RsJdN81afKnxn4Y/kVqI4rvd+hlGNxGeFv85gUChllfrXasqyrubkVobI70TEsFsZvk3kNGlEUtChUbUS862P31m3xL5/+RPzwm/8esya0xMy2hjhzOiazsS5Y9pEO2whjcDqV1HBnDHWU6LyoVw1v4VO6kSGA2nxsMH64eXscmjordvXVE8AJAIcPjThnzQ05aWMU88iRw9kehVOaK344TLNfftblz0l6d+/ek4BPnjw5NVzeaAVmzZqV3auzZ7apiwBMV2cXLS1+wOP24acGvJj0CvDZs2dm3yHz1c4NOBR79uxJMCXcfJV2KTDmkziJ7OBjRMjrNq5K3lOBaV6vmd9vNXL9+vUpVOYTaAH0WhWtsxzL9JrRNZmn9gi6glLll17vsY6WViZqmCqtZ4JiAE/8P77+1fjKv10dU7uao6cJ88n1yXCsG4PU0HcUYTHuQKAFxjaj+dZfx0RJfQMCxsc4fWonJn5L71B8Z82GODpjXuwdIjQ7iNLgpwyOMOpRiOhOzOtcgbRI+9huU0FWoJ7/ghenI2YIW2HV6umd+y0vHI9r1XqZlDHJs0mYeq9Z/pMGXM3V/FXEKDlTpkzGlExX7rPgzZs2x04cq1acMqVMTdbRWrVqFatlHkyP+xA+gePzJUuWxFOe8pSUTBlWWQKJ1XFTUscC7nWXP61ftyG7j2wElTg2t46tW7fmRzr1UI0zP+1pv0RotgemtKcA2H/T/kyWrQAJfHNbE1OjE+jDZS19KsK5fv3KaBw5Fq0EUIZ3Pxw77v5JHF63OlqP7qfpdlFG2TCfNYFDlBCmArj9uMD1D9fFdnqAb69BSKfPjUOEWYcGsAQQcWzgUPQTWXQVj0QNogwuFavWE8gTwfLa4cNH46KLnh4vfenLkmaFw/IV6Ba6GQNdzg/Ic/nmvVpQAU9hfDzAXeJk5Ai5YIbpYFQm3T5c0E1q4RTMioArBGrQhg1rYw+xXic1FKmHHnwovvnNb+JobUqwjf2uXLkyJVFhUNte+cpXxrOf/WycJvobGufkg6bWeXa7CvN0dU1IgdAj3oTTsnfvnhIKZYZOjVeYjPkr+cYD7OsVgpe85CVx+ukr4jxmnJwha2WuODWGNli2wqHgDAPcFBY/jCNKJY/tf41w1TNT1oQmxnBvbGb27LrPfComDfcRL4dOhByXKmPngs5iuAx6NDWPQ9DpxyljCK3fTh9+7f2rYmTRsjjATFvvEawWvOlDkPoGML/4fIJsv6s1kq+CKVApjAi6bZo4sSfe/vZ3pKm2nZPoSp3cck4BByKVTiE+woyj1s2RyviuTr6LtZFe22r7IJZPsXj+Go2lC3iGVletZurSSE4ByYKVyKk9k2MWpkQnRSI3bd7AjNaOJPQnP7ktHSyBuPnmW9LBUOok1hiwoDzwwAMJ2Gtf+9p49atfnR6/DbfRaq7eq6mzk5UpgKUwCKSOyxq07brrrmMypCcbaHme13v1+/rrr8/pwyGGTpdffnlYR0/3lGSkJj6nSw8eTCYMMsaePHlidLJMC9YztHJs3hbXXP0vcfePvxu/9wrM6dG98eMvfiZa+w4RKYNdKEQTwDnEakoNUugZEuLtNwB4AwwnB9OiI/GNleuib86C2MtM27GjCDGWZqhugPCrAqWwGKXz/hK0kp9G8eRzCw7Z9m0P50LOd73r3ak4QIRlnJ1a3NdrCLpYWBdlHMIXUHlUKIds7eNcgMFwdBTwRJxzYwFntmxIs0VjBNzZsqNIjt6ihGlqXFSg2Zw/b34W7vkdO7en+b7jjtvjtttuEyuib9sRgl1JlPklxACKQ6dnPOMZ8ZOf/CQBesMb3hCvf/3r8rqSaJ+vprtKtpOhXHfPlDRdRvMeePCB+NH1P0yB0WooZFoO7zv99NOJOR9MrVhxxorYzEodBcC63vqWt+VkiVKuhiuMtqUPT2oyM2NTCGLYv9Y1OHxsj7//0N/GB658R7z84gtiyUTM9aE9wXiBWLiAM4KgPsFr5LsOT70RhXAFaT2ANxO9G2TBxMOMxb+3bkvsntAdB+s7mKLFgsCr4QZCu/IYv8EFk2CSvBXknG6VSJL8sruaPHlqvO1tb8s2en7GjFk51i5Kwc0kFeUooyWT99m/jydwZHpMwAeGBwDc2TIAJ5a+etXa1Mgq6CK4amo7DsfixYtSw2gzqyv3pNbdfvvtOXd90003ppRNoLE2xHv8VA6c68AtS7Bk/Ac/9IG4+OJn5iIABWwAZhmQaMHbnj59Zpp1Q6v33Puz+MQnPxFOyeqoWLbWY9GiRXkswP5+5jN/lTnkbXHvvfemM/kHf/C/mWb8LcbITZQ9RNewDyYNRi+ATyRuPgdPt56yXIfWhTn8ERG397zpDbFsUlssBfCJDdTD2NwpUCDjG8YKOL/44puonv03oDe3daJTLn4YjOsAfBvBnYGOKTksE4DB+r4COCNRp12dDxckU06bQodJrd+9a3csWbosrrjiiuSX8Xf9lOlM87oaSaBNfjshI48tS6WaOKEry3hMwJ0Pd6keSl/6cADvxWQ6Hy4Bmm9NegvDj0VEfMp0JpP8ux6O9773qlyI2A8T7VsdPnQyPLB/8l7B0SxrOTTHaqhaex+g/PpvvCz+5m/+JgVIoTjKOnVB0VQuWbwk63EIc90Pr4v3ve+qHKK56kNhcSWtAQg9bxustk9ntqu7Z1L89KdlRevM6bPiIx/9aDqMfX2lv9dxO0LX0clYfMnChRnn9l67lp2b1sRfv/kN0bJ7a5w1BT9i0EiWGor2qRBA2gLqzbTL7q8RC9iIADsWb2omjDyuKzYf7o1vr91I4IXVQe2TM/CC1xBD9cQZGNrVsyRWq6A+O0Vrf2z9pn6Bo0It1uJFS+K3f/u3U2vt2/UTHHu3UY/5qmVdAq5vYj9uvMOZM48fF3CnRk0HmJJbs4p5YvpUDYMamRqud4vpmzdvXkqb0rRq9UPxute9jvHh6XiWh9DAWxOE8eOZvaFSQZQYkxKq523f62cVWq4D+I//9Onc8nPw4CEaeijn2BH/OG3padmF7GNY8g//+Kn413/9YkaepEUhmj9/fixfvnzUi12zeg3kjsCkV8Tdd9+dffrhA4fjL97xjnj1a17D3PjRDGS4yP8wgiX9py1eHF2Ychcn6IT2HtoX7wfwoyt/FufOoA34A/JFp0tM/JaRrfBBkDTtKkk9itDRTqQLB25b72B8f/2W2No2Po4wJ97bC1/VxEZXr1NPevdlOtm2KDgu31KITSqKY/T5+ABX/M4VKfQlYNSU/kpX5/hRDRd4P1otNVy+dLSXNQUOIStBsmgd7SqNrnjxhEOAYtKLu59DMwhTyjT5C2C0fbOTFavXrIpPfepTVEQjv//9JK4EDsoqVBtULYUSnMp528D4/a6f3pVlfOrT/xBPf/rTE8z9+w9gDXZDRV2cecZZWY/m+g/+8A1peSzP/k1TZuDh7LPPTmuhBVK4+hkv79q1AysyNfvxlWykuOKK34krcX7s+7Qydh1Hj/Ul4EvoEsbj6BgyrcNzb2Ry45PveEvsvPPmWEYQppnQazNBGnxdrhfQaWwCnaYdTW8AdIdojscbCaftRINv3rE3jhB42TGgtrK6R88awFlIRv4SfFLFbY+OqaMRAbcvV+v3sxdg3pz58cpXvTJ5Ku+dQLELmzB+UgIrVq640V832qYyyfsWui+7vZ8DcJ0BmoI0S5iF2tgFCxbkMqRmJOrhndvib//2A/G1r32VSY6tADoTE2REzagXa85ohEAYn5dYzbGEabJuvOEGSo/4OH3zpZdeQp4jAHI4HSsbd/ry02My4/59+/YC+B+iPQ25EuQLX/hClmujnCO277aftysZh3Tfe+891N+QffgGxvAveclL46r3vT/pt17rUCuaMZFL6J5cE+ZyJZcpO3v26Sv/PFZ//7/ijG7i7XrVTHiYEnC5CB903JpwtjXtDtH818RatlaWTu1kbP+99ZuieflZse3oSOzaychAgWFbywDDvgzYwM8qZZfJcMukr2F/bmxjKcO6l/36y9JSamnttubNm4/jVvwjtdduVsANcztBJb+Rn7SmufSKPKYnqOHu6BDwEllKk4NUzmSIJXNl+K7dO+ONb3wTu0Bupx/fmFrjMOnAgYMpkTpC9vcKjN/eI/j26YZMXdnx8Y9/NJ7xq7+a5tz7jNw57DjvnPMJjkyMbVu2xVXvvyo6x3fEHsKMOm5qvZEmyzTZeIXp6LESsjSqt3bNau7dHr/1W6+Iv8ZPsEzHt9avQLUgkIvpwyf14BPAF7W8nbDq5z/0vrjrq5+PFcTU24b6YKRG3ErUyDJ0aoKrYq+W25s7umlrYgl0B0ub8NS/u3ZTjD/vKTkfvm373hxy1RN2GMIBdPyevLRME+W44UIeaZaNB2xYtz46EZ63vPUt2UU6wrC7c8VLD6MXTbdJQfV+rVcTEiiwdjta4Cep4etgimHIwkxBT9MBo2aixdNwjuwDDx0+EC9ihWUr0Z9OhgMy9YwzTkebIodfbgRYvmJ5DrP0/jXvguV6uMM0wCDJRz72UfpwghR0JQeZWPDbBp591jlpSVxb/hfv+PNYt35dxpLtz9wqrKUwLaYfvuiiX0IAjC23xE/v+mn85I474o7bbgfEkXjzW/6U4d/vJzNc1Kh5HKAdzfS7dk8TcfJY3pBO0IRxjfHFT344rmMy5ZypE2ISK1la8NSTvfbfcNHFEOqnmkSkFMA9ZqKlxaBHRxwA2R9s3ArgT40Ht+9n6MpSKeoU8DqsFL5fAlZ56IJnlyQ/FVzPr1+/nrF+Y/z5n/95Oqfy1d0oS5cupbuaXpuixZRDCzdlm2rKjNNXFkQ8tobnRgQhLWva7MNLqJMW2SAAlzCjYXNY1zZ58hQIcwfjSLz8Fa9IB8xgh2NZvefly0+LjazUuAGz7arKxubG2L1zd64ive/++xh2lHH6C1/8QrTvr2Miy6f27TuI+e9Nr7sPiV2BSe+e1I2Q7InffPlvpgXR+TrjjDOym7j11lvjrrvuit///d/Pvlwn0YUBn736M3HV37yXFZ/bCRLNjg988IOEdJ+KSWQ1CoIm4IMcu/NkHpNBDiFdK67WjWcO/BYjbNd8LhqP7I/mw7tjOqbYefMGxjEuhHB6tJGBeZp1NFsNd1GEQHX2TI39mPYfrt4cbcvOjlW7D8fWnXvhoP0zkTkB9xdsdWimVluvQKdnzW+/169bF4OMKt7xjnem36PDJeDzEdDp02YmFpp477WsLFPtJDXD6/E4yC6wTPS8SPm6l1XKSFvezK2aPEOretJKln24gOso6ZzZbzq80tkwhv4vn/lMXMk+7Tlz5sYFF5zPSo1fJvJjTJ3tMhDqmHshplNv/dprr01TfgwvWTLf/Zfvjhe9+EUwrNR76BBhTQjUNC1esBir0QU4famhX7/26xlM+dM//dM053feeWd64y9/+cuTHh3B1atXxt///d/nSs+D+w9mLPrKd70LQeykPX0EgEpUUC11KnE2nrCrWO3T8bvZmFcXq+69OzYx+ujEWuxddXdsveGbbFagX2Q4VkefbjxdTtr+RtoHd1BZvXyCUwRfDjWPj9s374neidPiYcz7LnwTfZoGeGlf7hZi1wAKtppdfcvj6rMBDa/H9L/97W/PYazCtHXr9pw8caipKdfSCaT2Z0T1pnwjb4ZWHZoJeEnWC9hIhoJlOiXgAmQfLlF+BH8Qr1XA7cO9WSGR0Z/97Gfjn//5n3OYdNFFFyXgB1n1qYPkIonnP//52X9e+5/Xpgd6hPMvfulL4q3/5y1MAkyA2ChDJsOGOEWNjMPnzZkH4MbDW+Lr//4f8b/e8Pp0sP7mve/NyX9j9nYPTso4U6TG33zzTbnM+ihMPg0rc9VV74sVK86AdtabJeA7k2bZ5P7zGTPnRhdDSLVfb7sdQd2zY2vsR1jnz5sd/bs3xdVv/n2mURnu4D030qer4U0sjnBiRkYahIk+7kcAegH2EEOx+3fjgHb1xE6uPUzXBQPL/nP47YyZvHP0I9iCXEAXcErj2vr1G1g+NxTvec9fZlvV+k2btmR4dfasOal8WiqV1+jdyYC72aJxLOAIj1L6mIDrXQt4JYEyTbff4ZDBEwlVylxkp7n/p3/8x/g8HrTH06dPzWW1ezDHLqR346BEO9yg3njmJRcT9nxrLsjzhNJ4mCFTH2NY+6Vm5phnz5qdQFqeEb1rvnhNfPjv/g6QZqK5L82nQNx///04LL1Jx16cPZf1mn/J0iXx1re9NX75ol/BChNQol/rBXC9efhJjQCOJkyfOQtnEA1nW1AutWaY097KCIN4iOb72JbV8Q8AbpS8nTLaoLN/gDG8QzUAr5c/DMPqEBhmZKKX1S6HcN7uY7XqYPfU2AWg2/BJmmi7fb0LITk1mlLTIUhHTT+gCEJ9bESJmvAx3oV1ktemnXSJ8n72rLnZLeV+ec4bMstGjdHwRwCO4EFpluOfU2q4rv4wjZAIwZWRgj6TZbL2054zyuWEiN6ycdzvfOc78fnPfz77ylYmAbZs2gyjywR967g2nKSFDDVeymb8F+SOVKc/DTToILoT1PJkpJGo+Wj4OIZ4DgfXrF2TfaSe/T//y7/EGqyGluYH130/Y/w2QsGcM29OXP7sy6jj1+m/ZzFx0YvQ0l9SnjF6h2VqkJsF2wB2JmV0Mq7tPebeLsKdlOPSBodcjmeP7doS7/m9V0UfgtTJ73FYADZeIkCwj/Zr3V23PoJQ0c0TdWdKt6ktbnloQ2yh22qfOZ2dawRqGJ0M0yfrSEFA4lO6yqJ50u/qFVP21/gaeuS/93u/lyDbhiPM2xvHcHzu9inXL+QHep8I4CeadLcaQZj/jJitJtKmhoNxMtI+RMa7NUjAXU8lgwXIOLoes8MiQXfoY2jz3nvuzUX07v6YOnVanMF6rAsvvCCFxYbZZTgtqcaZjtEgHZFxLLfV+ZuNJssorYp73dRkBU269AuMl/+YGTKDKXYL5557bpx/wblxOlE/Axn6IvW1yR8Bd+hiGdLdoPeNWZ4L89TwY1yjpUmHmu4WYiNWe7dtjhde/KtsVtgUE9pc4JF4yRSDgSW/YgJvfIoEgwLmxDHjR47FfnyeOvyAYQFWv7Krwkmrga7ONSJEeufGLOwipE1LaLf21AsvjEsvuyxBBtHktXEOadayqnyKCFWKJRaGX/xweOY8Ac04njivhh836QKuiJIOoQVrnMAHkCqWXmm4Umi8WtAtQq0x0GFf7hhb4A2EFAYfSwZbjgsHnQHTSkhsFfw/5kwPxPrYCseZLtl1Yt95d4MurrVWCFayoEJgtSRet54qRGuotIXfMs1RgzNhCoV12EhBUnsrwKWzCS97HGA45dje0cVkCuvyAMwJFkcUBlPcabp37654zuWXxZaNW2MifT6ZKIvpXAptbcNqHGNrMX2pjGdFQWE4pn+Y+3txRAXbyFkTZTM3mu13B3ITddQTcTNpxYyfOxSVjwqAYehziSI6gTJpEk/CwBlU8w1Fa9LlY3rp3G/3nMghJCqP8XS3JTketzxjBOZX+CvlOiG0WgGuNpTNhMWxUKJcNG+lBj2USAHXccqCkU6T5xvpg61EQVGqdDBMnqu6CCsvy6rQCk05//bs2YXgsMOTbclOgjgK8J7tbJDXk7Ye75fplq3l8beWRoB1qBximUrdMBUc3CMurTpnCorJtdzTsBjOP8s8tWuAMnQYdcAMHR9kf9mHP/x3cZRFieMQqjaEqgGweuGFQPZjtukPAZb1AnjpLdyrttezn6wZ4PoUOtrZhkAP02000CVgABIg+aS0K4AqQfKIU1onBX8KGze7u3vyulE0AXe0M3Xq9LQAPhqkeOiUZyW/KMArgGS8Jl1zLuAyVEbrPTpc87dAlFTMh0ws99lwXCXKqMAq1wg0sOVHhg8BxqFD9LEwuxXGzOURI/bnbil2jN6PhsgkgfVeU/WtIDiKcO0ZVKZUW589stZDcPTSpdGxuLNsWguXQ7VhQgcNMpHbKWLzi5L3DKElK1c9iHZiwRi3W18/Ql+HKU6HC1vaQpkpjETkcg9ZvxMk+CEIknmd1WpCmwfpNhQ8tV4+2GYFVtqlqxI6gc/uDgdRa5kWBTC1UDpwXSwOkQfmp6FpIR8NcOvRGfT7MTV89eoT+3DNhNquBlmpJl0itQIPPfRQao0MFhDohxi1TIajvUhv1Rh/20DzeDm/ORjXPo7Vnccwyyw5BoAZePmTe4y7l+DET+/6GUDtgAHHF0HaiEoYNVtOJOg5qZkyUrOvmRY8tQbu5MIJQXNc3j1pci4bakfDBtEohVaaLMuk4KlBOncdrAMYYMjogwT0+I+ks0n55GuADnw25rvpPgCrFb6IA3vuCaVSJOe1GMS2UEIEij62En6/Bdh2aoHkmPk5DT3FxCvI5pOnGRfBNNvWFHwFhXoeDXB5/egmvfQEOSu1Zs26XOKEICWwSpk3a2qKhs/KRrhY4YEHHkwHKblFGfbzEq8waAEqc64hU2h0wgRLsO0zUwMo3wbOnj0rG+8DhGbNwmkD/H7q/Na3vk2o9o50Ch2XC6jAKYgOaewTncxRI3T47AddvlweIGC/VrYuXX/9j9OBnDdvHlo+CeGdyj2t6eljI2pgZ49YNBgAmomO1TNa0S/JWATtq9eSkc3Io9pMZkZldh8IIdcFyL3kPq4rw5/kUUG8x3qc9HC0YBs01bY9i+GP9xag+DY3PPOc5WQ/z+8qMphCCSO1TjDSP9DZONqHy+RS/kkaXj3jReYfxEtfi4YLZgW4xBbASx/ueFAiBNUpTft289gAKferGmZ4n4nsmfzpveaHP3mcDaIyBURroKdaLY/ynJMqmjm1V+GrtLGKJumsmUpdhWnSYV0uL3IljWBpbfwoMNahc6MlSPPI/dJRLIeRsEJw7hgFFMsZbUTWVv54j6lqZzlb/nrO66XNgs2H7EbETIVfeTh6v3xJJYFe82fpHNi9FUXxbKnP8tXusbx2GfWo00YZ1uEIq9pS7b2ju0dPBLyseJHgCnAzOzTScbMgCdO0VHnM53ExR0XSswLOmQpTtALyznOCo5CoHGVrr+cFwG8/1uE1gREok7yXG4MsUPBAwC3OpUDJBKNPGV1Ce9AIwbPB0loALXVYlgJkfYU2z5Rk3Z5zzZsVSm2Vx2umikaPq2seV6k6V+XPQri3+l21ucrvt+P7fCgRbXbdnECbX36bv0qes3wFqDrv71HA4YvnxeTxAcekO4FhRkGRKSYLsA8fC3hVsd9+SioAeCyhni6NL0R63rIFu7rP60UajejZ52ryi/cs0dJQXdd0eew9btPlsFZ3JWzcnIBbrzR4vtBS3ee9arvf0lB1PcfbkCQ4eq3RXrWhfFf5KmWQN5ZtqgCo8njOY8Gpjv2u8kmf3R0l1wCiTf7iVFWG3+avfns/P7ijAOtP2/JzA26ErAJczbIigTCOfjLgYwmx0sLEpEiaRlMh1hOFyOO/C7FVxspqVGCYrzqWwdX91puzQmpw9oU1K6FW5BhcJnpvVXKppyrLegTaMv22ngo078h8tXsrGjw3No09X2gr91U88XombktzTtvHptHrnLRsNdywKZ2KZ/Jclb/KW307rE3Q6YpNmnb3zD1xk47muBFhDX14tYhRLbQhViKDKpPu70orTmaCldtnjvaDtUZng9CC6r6K0Zbrsderevw+mfnV/dX5WrEp+bW2U44OZmU9pOR4F1EEpAxTvGJ51m15Hpus1+TvrI/7q3PVt9ctyzT2nOX422tjy6vOczGdr6rs6l6/pcNvJ1V8nkya86zh+B+vV+V6No8Rbr/LtQK4w84MvDyxPhzAV7kuvax4sWDNaUVkBbjnJdLktYoBFfP81qvUk5aXYx0LQdHjF2TzVeWMZb4NqMq2/IppHpsq8PwtfQ59SrRKEHhqMUuYdCotx6K0Ug5tjCVYRMU876/qyoLH/Ml8Y65LQ5Wq9vrb+6trFX1+V2VX7UxCoMXzFcDea1l2L1U+h2/6oYUDVY01gI//LEc1wKvTmvQnCfghNHxtOIUJK1LiJMQkYRXgNlBN9VzVMPOUBpR5dIGoGGN+NV5QPFYABL0Cu7rXuiqv2XMlVXUUASnMFEj3qJXl0HY/frzf55oaajU5RBxyHps6vW4swTxFOIrwlDoK7dVx9Z2MT6F5pABWeWxjaVMpT/o8VwmC36MJHlSpukc+ygfpMm92pQpalfGxvn9RgB9lAkAZk6iKEAkT8GryZCzg5vNjQ9VgF+fvZIfIfffdFxuY7nN5k40ySue6t6VLl1DOVM45S1YAUcorJlQMkwFqrAvwpcfgTLUjxmuuc1u1ejVr2NYRmt2dwucCDRdNWocPwXHY6GpVY+pG4yynAqXiZannkSwWcJPXx35XPDm5nOq3337MZ/K4WoNWlVPVWeWt6hBwh4MnJ3lT5fFa6cOPdy+eG9Vw+39NOpbP8h5jWHa8D3doYwUV0YIwFvDKixZ481Ua7fTd17/277n2LDcg4Og5rpYAGe/zwF0t+vznPzee89znEM2qLa6n/DT9tLVqmMzwuIy1i8XB307zfO21/xHf+ua3cpzuyhVNmTQ6tevz5gzSXHLppfGyl72EyRAfXsdYnyiZExdF2yumFrP/SB7DsNrQSGY7FveOQo/3lI+MrkAzg8NS6UhAqkLJazJ8a15Tdb95x/LYy8c7DzJmpXnLCX+yFIr1/iq1YNJ9qtOT6MMNvNiHl+lRzWaldRY61qSrsRXY9pEeKwQf/MAHAfzr8dznPTd8jOTMmSWCZjma0nXr1qYwXHfddfGc5zwn/vjNb0YAyoNj7WdtSPFROaD1BrHUcP0BTXUvYc4PfehD8dWvfjkuveRy6nl+zGMu3Bk5H9znFmUf//3tb30j67n44kt4mP5boL2HqODRjHQVgEo3UBhvVcUM286SpAIhg6nSrkNlRM9kpCx9h/RR3O7skiNWkPKdQRrK6hszvhfuBKjExWxWnrFubxQ0LZA8tevzn5ZJ197ly9Irf9FbBMV7BRo6DNtacQ10p0fdNqyCeE81ejkhln6qSJuRLVe8SNBY6dNcGmmTAZVkSmQlZVdddVV86d++FFey4+MlrExxNsiFB+YxKRiWZ/4vfvGL8SEWGb7oxS+Od73rXSksCkx13fwJDDSoNYZMrdcZrE996tMs8nsH2vsywqPt6fQcheZWAjQ+67Wd+LxRuu9+97vxPmi65JJL4l3veTcrSHGQ6NOR47Q4MtFkO62rAJCnao6ejmfZaZITEXRBBoF8KK6bIlzx46O0ZtNNtbMeQM1ykeRRZuWk1XZXZdvmYqlK+dZnqvhb8cjf1bGACr7dneWM/TgS4gQywUdB4VuleNKAOyxzu7CAm2ywxMscAbcfrgD3ug0x7v2Fa67J95C88Y/eGG964xtrVqKYG8uomCuozlbpRX/pS1/KhYd//Md/HL/7u7+bEzGW56diiOu21GwZ/R//8R/5NqMrrrgi3vKWt4zWYdnS4LShdTlPrqYpcF9g6dX73//+eNOb3sSCyNdzjUdlAlzFVOuxPlMFeAHJx4uUKVrHxy0Iqxrzve99Nz720Y+xHv/OXFZtnksuuyTe8Id/EBf90kUZOnUSxHZWbT5ex3HzmxXyx2u2rQJTujxX0eJvjyueVPmMjKrd+RkD+KiXThlPSsPlgYXLwErqXNkyVsMronTKXvWqV7GWbWp86pOfZH83j6OA6QpGBbaE+9vGVEkt/Ku/+isWO66Kz7B8ydUrTi7IqDKUw5QyVajsGf1zm7H3f/zjH0/hs+upaLBxPmt19Dd1ySRXv7hp8Z577knwp7Oc2U0LFSP9rmir7pU+yVTQpFkAxzFz9u1vfZfNF38U69auoV0ltm8b9A/mzl8QH4Ouy591eQqeZQp6BVRpT2l7VY/ffuSvc/VutDQZ63dxpp9KaCyvEgTv8Ti1W9C5Vml4Bbj1nnJ69FQmXUba4KoPtwILMNI2FvCslIw//OEPc1nte/7yPTz6+TlJpITaEPNUx5ZRleWxzHRvuYD80R/9UbzoRS9KzZdRiC4E8J8ympk4uY2VqX/2Z38Wb6bPdyGjfbU2yPI8cBrU2LfgVIypgPzZz36W+63/F+vYX/WaVyfg1i9dfp+cCo2u5CnPbxeALZjvF/7aC+P+++9jgQZbm7Aegq1gO6vXy4TTOeeeh6X7Qi5WMJZRAW55hVdVgKW4ZZ5TIdy77iPK3IhhpKzqvjx2lU/FQ79TAGt4PBbgmRclSD6PXfEi4GX1CRsRYGIJvPiwmOIVW4E3+RkLeFW5yHz4w3+fGwpdF74ASXdGSGbaUJli3y3zLUPzZfJYgdjAsM1dFmeddVb4iim3AmVeG2fDKN9pv3/DN7j66qvZovzeXMNmv2YZ1mFdrkcrc981IaAOabRuHyJgt3HaaafFe1gP73Sj91qGefxYzthUhN3lwzx2jC7ok5/4ZHYLdhNLly5lSOjGRxw1ynDHp+00/f1HPpILELUsYwXK/ts6TfK04qvVrly5Kn0Cr1Uge2xddqPS5kc6TR6Lmd14Js/zX6cttxrpo9gm/pmF2kbbV56mzEX/ualv9ao1uYbMbDa20lKJFXD7cKWyIt7rArZ27Vr2cb8v5s+bl05NxcDUViqtmGpDvadihg7in/zJn2TZ9rUm48mjifzOGn3sYx+Lm266CaF4V66BtzwFQ4bp/UtPNW62jopBHjs89D4fmv+Rj30kLYb1V0JY0TZaJwd65cYUvN+ho238APvcJrJSxqdLC4YCI/1HKdchpyD4xkTbowBYvvWU8i29gG6ZfkzmWbNmzeg2LNe0+WQLFcP7nLByrt98fo4nQ7XASfttt3l9rFh5uE/5bV754DNeKzweCfjqNawTPwwDiyQKjsRZYNWHjwXcQmWm68TfB2Buw3XlpRUIQqWJ5jNZXtWva7q2bNmS2mdA58Mf/hCNKkyxPpMBizZWu3wEzbHrsM+XIV6vmOlxRqisF+GwDuuXQTqImzdvTsvgGP2Tn/g4K2bLQw68XgmuZSRzlCCSgDtU8rx0/sWf/TlDzvfn5gU1XmC4yFImX7dxMM2y98kDuyedUunzU9VRaflYwL0m4NVmRzXUJckVQAJulzIWcK/JnRLMUY+hGfCdTHrygKPhSm0FuOBIoITpELgmvAJcZmgyP4G5+/znP5egnEc/pkmXQK+P/cgQy6rKVOJ9B5la4WO9rrwSk07/PdY0K8XNrU149F+OT+AU2d8/7WlPGxUoyzdJn3uxZUYFuHWZVhONU0ONwF111XvpJtS8Arb35718e6/3+F1Ct2VBpgz/ype/Eq9hz7Zeuc6U+exfBXY3Tqsa3sXvf2W4edllPv7aMX8NcIRYsCk2+SF9pgSOen0OjsM8+3LL1JJKk0u/PTZfJTiFtmLSXUGbcI/R8LEmvarjMTV8lYDT/2grilkrxEmAhQm4DKikV2m/5Zab4zVX/E689rWvjT/63/87TaAT+bawAK4PUDMvNtx/MEzP9V//9d/Q7A/Huxknuy3JMe4oAOQDlhxyrVq9Kl7zmivixYzb3UQoMyqGJeg0PjffQ7lLn7xmOZrzH/3oR/HXf/3XGeS54gqdNgNLmkiHf7KlCKZHVZK+Np4mZTtdLiWwr/vd32M//FfQoh5M+yRoZVMANLqXztW3b/zjN7Mf/aq0apaj0OfG/Wy7dRwXyEpQpdVhsBsgdwG8b3GQpz46ZeLECdnOyvnzngpwyfYxXv7OVNPwxwWcJUM5orMwnTZ3jx5miW7ZakQ/BkEmlxZNYOH+nDmz0GrXeJVhltEtQ5mvevWr2AZ8mOeqfIyHuZ9e7oEgKEqmOWzyWEfMumSkj/74wAf+lrj7rrjmms+zsLAnV3ykqbJFaamKN++Q6w8RpvVs9H//374v3wBkYytrIGgmhQn3g3oU1JGs492MHtSgL37hmpjFEw2PMRbPEKi30Poc03JcY12W4pDGB+nZj+vkdbS38hybh+L3X/+GuIl9bAqBWi5f7Ltf+MKXxN996IOsqZ9anEEEW9rs3oCaf9ZTHNlR0LhPXthl2Oe7ZUqv3zV55dEpOrjciYWQhuOAcxZ6h9hFo2DWse7OQEw6bQxtjQ6CmH+yUUXDi7Vjy5N7Jmy38+GEVnG+DhGCNLvLhqqVloOD/Uj2+Jg3b77ZS2NhlkkB+Pd//1q89U/fGs961nPjL97+TrzL7sxjQ3xQT3q9gk5S8veybfgagjWf+MQnMmDzu7/7WiSdtd7ksXGZBAHilWRXrRo5ezMO0VPZAvweLIL9vlt37QacILCRGZ3ivtRuuqarP3t1fPCDH0iT/gcERw5jekdgkgIkUHLOf/6XUzpAcFGZYVUq3QPAOgKQELuiu9mD/pWvfZUHE93HuHkHwHQR3n1evOIVL08fZ5DFmSmImPMBom4eC1QKFQ/YlS4lS7OegRF4qOAoQKkIaq3/5BUBCO/znrwv6aQ89zlJNQ8LAm6wsz0IDt2N24VL90FDyGeZrpXPSv3Lw2NtYl7IYdm6dem0IVRezkZa+DBzyW5Umz9/XhKTAEKozDbGrIT51KSPMjR7CbtDX/va19JnLkYY9OhLWVbez27LhzFf//qla+Jzn/tc/MZv/GZu/nO3h/nUvHycBXltX8aL7cdrXus//d//FH/JK6F9nMfr/q/XMeZdwJi47ENTwo9gHmXOzh07c6j46U9/Ki6++GJCsVdiJjtKV4TAFXNeYxxMLR1NNpk/MpvWw3SBMWqXWolA6LM4itizdz98OpiP0Jw21X7W6VgEVQEFdIXItghaihTt0aHUrCdrrcWbSAqeoKdwQHu5Iy95e2qwkuh93uGRM2oGfJJpjLMxNLmRYgJPvD4ZcMSWczW/YVTDKUBnzXeCOoZMJaN0l+Vm4Swa1KGYP29eMfMpfVTOfe7YKFI4Ev/wqY/iqf4NW3VX8FSlV6bp1dGRVCNyGzdsiq99/Wtx930/y6cuvfFNb2Tioyv7VZmbuypoiLNrli2TShfiOvHWNJOf/qd/jL+68i/j9LPO4PFfv864/Dxi2bzaAvOrlVq/bi0Wh/eR/fj6+PVf/4142/95G9ZgenFG0TzNVwGjYr3MlZX8rUCAqSg4QDhKUfP94UbDsq0JzKHLeYFCpzDkozHTIQRUzwsM/xJkCita69nCN+uyzQq4tQt6SXQFCEaxNoWmfB9cllgotdwGhltqtma9LNhkWOZzZLnRT6XhJwBu4EUKJOoQw7E1NcD5SUGlD8e9IgMxcJi6YP7CIuU0yMX5SpZ9lZXKjPrGobjuB99JU2282WGWgqKo+mxQHZCzzz4n/uQtf8ITnH6F06U/L15zDWhbL9gwREGSKZJgV2B/p5bdetut8RECPjfx3BfNYfs4Ho5HHt85th+BPZfni7/+9a/j2ePPZksRGxMxr05qGBMfQgNlqGVWSeEyjQXcl8jargRiNC9+CJMaaebJ7yIL5MEbkw/mlV53xdKCvJY+CdXVI5BFAGB5CgSmnfy5Vj3rUTi8BtiJvbpe6FRYEkT4qEmvY6eDCp6sonq7QffG+aRoZTYfXsDdqTShE1uEiXE4iFCJjFU71qxhxQuaPmL/BeEZfKCA4WEeaMcmfQFPqWTmyepSYSBe7tknNbawXYgnFvuQPR/PZXnbtm7j/vKEoeU82+WXL7ooy3JcbGPVNhmQkS/KMcn4ikiZK31qu2bQyQy13T7/dh7nef8D98WOh3en8PkwoDNWnBFPeepTcKB4pAd02h575X78EJmpCbU+afavICTnPC4nOIKJcFTtLqZXhgkheQBHeqrbUuAZA6fzpB9RA9G8ZkoNt2+Gdn0O0Uw6uOrjQLQSZVpU4DgJqJYhcMctiGXVkgVzD4Y6aYDAGEDzWtjkOBE/SxwK4GSjQJ9CUTLyt8TSC+Bq+NqahpdKAdyKLR9TpYNSjcN9uqENzYBHVlCkE3ZCdGm097rDRM2UszpADulkVj4fjXJlucqWlSh4gsHHVBpN7fxO8LN9CoLtZQ6ZrsQpQeejS+x6KJ27fMsPmWSwZSn9Aildg3xcxSwItjE1wHJrea3XY4lyE//Y89KRtHndfPmnHHNDnvOPRzka8QfA5L+sr4SAKbTwQNAAvFaSmSmf32wzTY2mBi1g1mmhVpXf/OF/HULW38+Ig/O+cVu7uuYAADFrSURBVKGdhyv5dKwcEcFzH0tS6C27dbibDZA6bTWxPsQuj5WryjtP7LNyHA5IJlgFWErQhDTRXvMlczao1vJ0iPoxndw46uhYuXqhRtmIagYHSpBQ6D5+e9Yngf7zvymZfxJPva7jpCCpAa6yMWzqvckoGKo18jHao2VAr+8/dxAqgyw+m+2RWnecm3lR2nxnmfWnp4ympDOpwOTdZEgyzYOGwnyHgmqqGlyTCTLVkoD7ogx4ky1MYatJum2mjLQ0AD7iA/gpQ5osRx5lkmDuk3D56VOa3dbkkyDcZzaukzccseGw1eGkIyzLSLmWHsvj1tRwAYEggxSreFG8e7frcPWVUh0ha+13zEej7C993ngHz04bRsNtqFKajIEZapEeoWZXJweIbX9WzBV+0w3INEyQRPvPelKTOLbPL4krHBYsCrHVeRkB37in9K9VOV7XedFKGFeWOSkUdnYy0n/ySyYKktpEqn1Rai1xIrcZcaacq9HM/f6v/cnM1Ja0+MM2aJVSq8wFHZ6rkg8Ukvb8TzlaQwlyQ4V5fdqlM2DWkWVZhg21HI+5Jl0KrIqm5WpoLuUh+qlwFtnZ1hWdvEGpJT1zcBhjRVLDrVgz6wYEvWifuaL3Z0XuwhSwAfZBp2RxuhvHYDJDkTb6jEI8AOJIKAAyr04B8B83QhfAyhR1piS1UmFIs1qd5Ds902ywLTIVTRaktDaUZ5kyuQxlFFQ1i6wyg2/Brxb0G9wxFSE0H/nlZuGzxZPyD20sAm6DpNez1umx5yy7VMCV/FHuK+Aq5JZU09LMKm0lDz+5oiDQ6Cy5Vp6/BND6+E4BVk9ynO1d8oQyqnKoQzKsJy2A7eCf3ZTxEkcJYtAw5DNpxvEiHzdfsoI3abduDjXpZMsfdvBGvbZt38YW2cKsIrEYo/oy66OpaMd0TJ8zJQ727Y19R3fzkPnS11mMoFFmEtRQz3AN6c1hh2BlLRLJEQLEqQylplBxTu2uGOu3jXVftZ79KPNov1ZFMDWfnpdGwbTYzJvNoVWCxXmZk+N58kpPwolgyMdcyiUDKSPrppDCZArDOhmgyTq0WKScySsZ+SVwco+uTWwpsJTHlRptVR/s5RR+pdcf3su/pIET5pMhPEKGfK4HEEpSlilfpGdM4iJWPEOxgzzWM3NTQSPvWpnUOjkWTl8cE1q6eaojz1BHAbOr4fY63x+emSlPAvbs2ctCw/U4A0aJzFjTKPsLLBK7r6OLR1N2z+2Ka2/5aty19tZo7CyaF0hW8UIpGYLSrFN6MlBaOa6+RnAycnEiWtSEJA72A06hJE1WTtBYCIwwYqWJlonG2n3ojkucc5hSSuSvDKEl3FKEoxzLqLHMGvbpimqQjFcw+Db/KD8lMYvSB1YrLacSiJpptz+WtDQtAl4iXua3H/d2JzakXcH2XwJaq8/T3s9Fys6vJIebS9XoWuYxC4VlURZqMr/nsOv2EMRc+FgDjikP4B/mAdYrZp4Vz3vai2NKy6yY0MqiRsx+1b5TAL4PwNlQiBcuo2S8nBmsYyEdlTSNAPiEjpg0ryO+etMX4s7Vt0RDBxTIWF6arnSq5VKmmTQlrVwvQOSp0n9C8HY2+x875EN7pkUHXuamDZtjAl1GFw9793mu3jNl+mTyPUwcgBgzkSSdLwulefwp3KO2wsNSfP7NejlK3vLt78yX9yiknBH4UyY9Droo/qX5NC+pmPtSovDkqhN+CrYx6yTJtnJo1wNTShWlck96aky9tXItXwHyvz5HJq9VQsx5fhbwKUBPHgs0oqVEiLNQ/K7hw3Vx1tzz4wUXvTQmxdTobOLR3jxVoxL6RwC+e/fejKc7nDI55nbo0z/Cig5OqeHjJ/IWnXntAP75uGP1zdGAhsuYOogY5iGyIz5xMO+uSVZSmicSQH82IByDPE98C88XN5LmQ3K6cQbvu+uBmLt4Tszm4XibNm5kDH04FiyeG2tXrY+Z86ZTd2euL2/E9qUPkBVRe8pWEbBa5cncFLJCTCHAB60guDIgmcA1aa+SWcsvNKah8CC1MM/WCuKE5RYN19TbfsqjXH0Iwfd/lpTfAsIvhCuFwnurKqFjeKzQeaFWryVUaayyeC5HUQLMvxHyy9N636lypCHOmHtePOcpL4ruummY9R66xccB3Al5u7+qobl3iz7c51gw8o3xk3glIoB//VYAX3Vz1LdDpBXyb1CJpt7K8XEY4jWFXaL9R7OjfhBTjvAc2MvD8XmOS64pZ7ZtLw+2mz53SsxZOIcpyWOxaf1GuhVe8kYwZ/bCmfgDTnr4vDQ5CSAykn+22JI9rJKHMmJscvTBeKZkg7l5fTSPB3lX+ZZ0tQ6609HkrEKS9WWVXMt780/emtdtK/9K3Zm7RgJWwCMZ6/3+MpM/7Vq8hrLAnDGGx7MlT95rHpPZaItWZAQlk04tbBytjzNmnR/PvvCF0V0/LSa1M8FkN1OI0WmzDydZGgdFw9fQR3pSQgrhQ5gNmeVjqDontKWG//ut18RPVt9wIuAiK5Nq96Z3rtRyOpO081OwB3gb7103PYgFYZPDzClMkDTF5jXbo5s3EsxbMgdgh2Lbpu2xbd2OOO28xQwF2ykGOnAmtCKqSfaNEp7m9DgYFZvLeLZWN1+5M1Pmei9lFWfJ0QjWqQaEwUfDykM+Z4t8CqMhVB/2k0Kr92VZMhmTChfT1xElncYywULZaruM5pOLM/SHqEP2qEQGrVJASnFcM68/iiBnJWP+VKBJJjmLRbEdmvT8zQqdI/Vx5pynxLMu/LWY3DAjHbgMnnmDeco4XKwhjgp3pUlfnU6bYOm0Wfogjco+vL6ZvrQpuhd0xtdvuybuXHsjfXgpDKRHPeMivVkFf6DQdlhp7RD3Lp9iuHUTD+Lln4+/nsJQb8+uPbnCpZX5Zxnajy+xd9fBmD6bR1bhHCUolFPHo7IgKMu0aPlu15eCXNXF+eP1epOVl++cYvQ3H32OFEzK0Olyw0IdIwxBtwI3F7gDJOPm0JRgMfzJZPeVoAMT3aCxCrvBBJu6tAwpTGT32IcPG2dvbEI4CPWa15RgywnpA9HSjormzCIpo/TbDoHXIgh4NmuIIXRvc5w5+8K4/NwX8KbFWdHdxoP6FEzvJZ0EOO/jZBJ+1apVSGrZ0ZhOG0zJ53oi+c1Ecdq7WmPS/I74+i2fj5+suTkau2QcpaFl6TmOlu7pUpOSXfJYLcf5E2HifC4yMDafwyikn5eFOf+eGoQbauTJIWOuUedG/wkUf8njXxhkv0wRo3XUGlgymb1oNTnKvSkslJGgc457LcOHqdkXOozxXWM5b4B2t7GbxfBts+vcyOb1HOfbVrTVyZ8Guhn9nYyt23J9Gq0F/+p5Fqt9nUJb1wjNmOGygIH7+V8AL3QW0D1do9nm1o5H26FF8z4B96OQMEoS8LNmPyUuO//XohsN7+HFt/ngBPKaTgJcDd+D07ampuFl77WsxRJkn9GE1Hd1d8TEuThtN38u7lhzE06bJWXtqeFluMTv/G9NEmR1JWVWtMpGqllqVEo6mZzjdaTcxBOUMuYOEA7bNJUO84ycKYQZH6e4YtKpSqZkHf6xzuNJ+mWYdBSiOKNWSpd84xI9G2NgAkmDLK0+0p/LtDBBubTJuXjr91WQjsNtSx9C4IZFH6HZy7p0i29Ce6VPi0DL6ArY+sT7SH1Ybj+vuBoeQOMZ3rZhIYcbGGryRuN8Vs0ouRIiWRBF8nQ2acxxdS4FIDPRBq2dbawBrkm//PwXxMSYEj0dPdDhiMTMlPlIky7g62rmq4zDpUITqJPQgKROnNwZE+a2xZdu+hwmHS9dk54oKsFopgSkjTmR6KxR2mqVZx4aqBZoJksiA9exKZRT0EhTXbuqECgkmsxMRXpKmVW5tbyn/JIuk5ZBK5E/0STeKsiWhzi6j9dY378pFi1dEJvXbcsuZeqMybHuwY1xxgXLeS7ssVwg4kTQzu27YsbcaSxi5F1jZyzI4Y+BmrUPbog5CxgDsyTs3jsewCq24pweZFTCuvxWFKanI+adNhOgsPMErQrKEgUd/K3E0zP+PrFZ/vIeQNQi6c/Ab//l052PNcaZc9Hw814QE4Z4dVjXjLQ8Vf9fAE/1s2helIZJX81SZSXaPszYuUlP0Dfr6eEKeNfslvjqLfbhtxSnjb7LIQdhksLMsWRKo8WPSXr0gpaEquX0BTntiGnUlNspq+0ZvKF9Od4lf7EICINaQJn2mRZdTLMVncig0pUU/fZa1VcWcwBr0yxQQr58tiUO7TwWd13/QMYBjvLQ/nPOP59FnYfix9+4IWYC4qSeibmiZdnpp8VNP7iROf7Dsfi8uTFn0Yxo4a0KvrZj/UObYvnZS6NnwhRegHdDtDaN49XVe2LugrkpYNu3b4nznnl6tHTCWx/JXOuWKsqzabZNabRxlWDysyJXC5ILU7yW43DOOEeOl34WgF9+3vNj/FB3TB3PU7caXLRh670fl1QzJGM0q3t4rvmaNasxWTCeXDLYECjzMSlRjTg1HUTaJs0bxzj86tKHd9rXSHdx2hKwUv4p/1q3Hr9gO25npJf1K7ElgoQWswxLZyj7ZTJk23U+AN1GG/XLNmAFhshkrKc26DmhzuzbaEfxhqkvK8e5sZz0hi2I+tyOM9gc+7f2xm3fvBsT3Bfju8fHxc/+1di+aVvcf9f9SZue9Vxen3HhUy7kofy3xkP3PhgX/8YvRc8MHsXN89Qf3vlw7Nu1P5auWBLjx02KG759U3TwTpSHN+/MmH5ze0N0z+qKRWfOi8YOLaJ8lhOQQSM9sk/Wj/ANyDAmfxfHDH7AY/OldqPZ3j/M/Y5G6obxLw4D+PwL4lmY9El1k6OnnXew0rU8KuC7Ady3ApXnm5bxWwb3NT9UxMQbgJfAy1cw6fbhjaOAF6/08QBPRDDjIub6Ov2ZYR6gp8PEsxXzMrE9GmNfKJCYcDSZHAVsucP9sCMdpicDOK1Iq4Fp40gaKBXpGSC029bEi2p29MWd370nlp15WqxbuZYoXzerZJpjx9YdMZd96Lddf2csXL4olpy2KG78ETEIwpYTp7Fb5MJlPD67l/V6bAgEAPM217XFzd+7jTcgjov9ew5G+/i2WLhiHpaAzqOLwBP9uYItHVqe1Gh/AaQKYZ8sicNptgHbrhKJ1RnMbziS19JCoJwCTuDl7HkXxrMueH4BvGMqSmvgxXok7SQNT8BXr8ZDpQKlhpxOfhCVJ7OBl18M4BKgNGvO0mxrjvox9DQynbWaN6t1Edk0cxItRn5qAkNrbLaK8MQ0nAJsU2qIHKBsjFbeP4LDdnTvQKy6k7conXMmCxV5u/GGLbnww9U4p5+1Ih782UN47K35oldnFOctmU0UcG3MXjIjJkzpivWrNkbHBCaXZkzDCWyK+37yEFFFHrjP8qruaRNiwdK5PF6b9ewEV9JLZ3hmo4r5rnVPjtTggxZTy2V3mk5mAg6PANxHgrICFR0UdIVWwAltHz4J8HYAZ2Qlv02nBrxm0nMWKhkKNIzDf5EaPgp4AsWKDMxp9KLLAzz/nIUWzsD1DhxmWpbHa7fYKGiQESAr4GmNbYT0afY8rDWKw9F0skk3HCtb09+wQO7xEdhOLzKPxGwSAsdeSh8DPsiyLodezoj5gnfHzZpfPfQG8svFHJPz2/eZKDz9vBumneeg62gqpYN45y28KUFnr6GVuQnWnQmSH4VZo6ywAp8/ZHEKty+1SxrperLbc1ShcIrtCGoH6L5Gs2i/rfcagBN4OXueJh0NTy+dFxq4lo5yM0+l4fkD5u2t9eG9OXniuBJ7S2b7cAlioBadzpYRWv2yw7LVP6dJT8KplYY1DLMa9SAO69C4mIxETuVVWS0dvP7q4MOx5eCG6G3kqVLwN6NrMCiZg4Yn8PTh8ATS+F1rVLas9udkwPHO5Bso000k4HQVWhlj84CkXLdiivv7EAIe7+2LdNMCwIEUCldtwidXmLhLxDWgapv16DgKoGVVyPl6jyb6UK9LpdO95ZifEKxX75q9PAfaPgdGjfVVVxCGtaNrU0AyXq5WI2RMYAVDPNuiMDAQ1N+mXQgTgJ8z32EZgI9MZVimho8B/GjvoZGWpvKiNE3dbhYfrjbwUjPp1fQoy+qz32ihP7AP7yHw8uWbr4471+Cl57DMCiGQ+xSQk9NoI2sXXHXZTFmDvNe2cYD3ghxojHmTFsfyBafzCO3poM8q05HDcdND34+1ex/iZW+UreeuiINwdlvyEJpTKxSDk+o9uU6rdnGB2aq1Y3m/wmQ/KZY4Sgd28KJ4tNJFj52EcxsJBCnwGb/XkcSUVBMedg22ZQCT38LCyhI9I7+jDgjKDRKAbaxBX+TgPvbtEdSST13sEvEZ7a40yjAr5foSnbbOljjA/MJAL2v+2VfXTig7TTqS2neIYBBdhEJ08PD+GDeBR6GwCtwuL53mYw1x3sJfItL2vByWTe5Aw1Haijd1P1tz68iZCy5MyfTsnicMeCfj8M8wPYrjgtMmF33qUTK5Kl0O15LnZYBS7v+c2SFewU6qGDzYELPGzY9lM85E00di/vz5Ma6bJc8dQ7H64D3xX8y7Z6CKCJWRNadHHS2Uoqybvk5ByKQUlJTyUBMEFSyrT1L5AVBquXSrQUbx1O5Du4/FfTeuzmCPXUXb+JZYfu4SAObxX72Hs/92V6lWBV1LIPc+vDd2s2p22RlL09QfZG1ge1c75p4gDmFUfZI2nrtuQOeuG+9lMoP7sQxNaN6CpfPjZ7ffy4QUGwgAf8Gy2Qz1Dsb6B7dQVwv398fy83kxbk9XrgO4/fqf5UP3u7q6ecbMxlj+1AXROZnXcsKbHOEcqYvzFgA4w7IJQ1NishqOVakgqbtn7e0jZ8w//+cD/EYAJ7SagMNjXDwaJyhw8XGSMzj2b611vJ+sf0LMH788ZncuiIfX7oxly5fFlDlI/3heY9WwNT7zjU9jwdAYLJkNG2DBoszCekK3HRv1pn2vQD9eeRGy47/t6HNYozRk9kqIAAAg9m87Enf+4EECLwtZx97Lxv+dceYFK/JZcIcPHokpsyblWHzrxh2xcPHC2MD7wo8dYC38rn2x6PT5GaHcs5Mx9+JZdAX1OSaftrA7Fizi2rGhuP1Hd+brPAePDsfWdbxi8vTF8dB9vF573hS0uy1mzpoW9959b8xbOI/9bB2xddvWmDob4JhQcnLph/91U+zbth+haY7lv7QgpizgHSdouHMd8nSIBRDnzHtaDssmAniPThtRywqR/xbgX75JwDHpajgJViJlKfr5e+yfsYzP/hZNbcSk61V2Dk+OFVPPi5ntC3ICf+4CXrPRTlSqm9dQ7L43vvb9L8UwTtyIS6mcKFC1FawxgIsfnenYKtPajK031RnAR2CMXn49nbYOWXqAmOV6XgF9bPdw3Prte3Jjwy6Ae9ozn8J71fezpffhuPBXLog7br2ToBRmlUmk88+/MG694Rbe6sA2KUz07Lmz4ic3/yQmTZ7EEGxcCr+7eM5/+pmEU/ULBuKG79zCaATTfLg/znvq+TFpfHf86AfXx/zT5mTXMWXalLj/7gfjjLPOzJftrl+3LuYunZ2WwocQ7Nq6K/ZsPoRvVRfzz54Ryy5YgDKw45ZRlDwZ7sWkz1PDCa0OOQ4/FeAL0HCcBTXlsUy6479mpkc7JrVF9/zO+MpNV8dP0fA6+/CqD3EC5BTpRMZDG8MS+7S6Xl6f2DA15nQuijkTF+OlN8bkaT0xfgrPV2kfiOtu/2b8dPUdmPQCuH2tMetc124XktVhmvlfvLgxlSMFKRyjpxBMXWM/Ak7PrJo32E0YWmU92OFdg3HHj+6Ppz7tonjwPt55wi0u6RLwBUsWxkbeHuzul/27D8T8hQti7co1aF9P+PrLuQvmxZqH1uSqnJ6pk2Lv/r08r+1IXPj0C3HwcIh374+7bv1ZLF6yOMO2Ar9sxbK48/a7YsnpS9BEdumwJfuhe1ZCeF1MmTYZ8O9nyDeLqeFxjF5auG8TwbnmmMbDie67794479Ll0dHDO1mwfk5cOdI5d/7TcrZs4rCx9FOZ9AUX4DQYSvUl7zhtLIAw8GLkTafNa4waEyDffNvJAohunbYbPxt3rnO2zD60mMrcszXK4OMHAl45UX7b56rhalVDf2t0u/Bu1qKY1j2dIRAvYG8ZifWb18Xt998WffXshAHQYcy5kw1NODIV4Cq7JrpoeGW4jtf7yCPoVEiyC/ALreCjw0kFcexwX2xYtZXXSC2OXoZSax5azxZj3iW6bVcc3scL42YziuC9LPff9VDOj/sKjp6p3fm6K19P7br8/Txtcu4iXmfJEK2370gsIthiLzdALH3VfWtjzvzZaQ3XPLAxpiIs2zftwunD44auRcsWsIOkMVbevxJfBR+iozUWLuO1mewocTbuwXseyBVCM+fMjJUPrEQx2mPaXB4gwL/00gmtGni5zEgbS5x6OnmxoNHSGmuKSR8DuBruluESaasFXnCS0gvEFLIr+gTA70jAQYMCZbwOSnpTj+T0iWdguOPMIR7r2u50G95lM2I6tdvXLxIA6T0Uu/fvirpWAGnh/aHssMgFe0S2sktIAUsVznotPF8Ed2Itp/xVw3r0mtOZTtHq9Dgf7mszBAgx5luBpyuBVs22zDMM6wMPvJa0ICtpL7jeyP4657ubWinPISCWyQf8mnRUiwHE3aMcrZMxLfvedLj4jX7hQAIf3Y3zGa2M/3OeAXo8N+of2XSHpoZXyd+AiR9mhFF3jAUQAF5my3hhkIDjS9jdmh4BuBq+dn21arVk8hneCTh2U++4cyIrXtDwr9z42XiigB/30qlUbbfleMVr79sYi+Yvjm1rd0RLY1scOnAoFi5aGDt3b8958cN9h5ldak/AZ86fwZMUGRc7zv1vAF7aDrOSBYpXWWjh1iU3UTgeZ+yDRSLoAjAgB/gwFEAVCO/QIjgHLsNhOQzH6jCxpHBoFaVxACEViHp8i7Jww1JAlL+C7fhbYUtBSy2EEojKx25ShkAZ+NHb14LlUA9JtBRNvusCMwStQ0seZzKHj9YxW3bBSYDrtJXW1t2z5raRMxZeCKHHTfradeszmiQwfpQsAafI1PB2xn7dC1i1eiOBl5pJt7wno+HFSx+Iu28kVMl7wbondGNq6/FYV2HCFtg8xvsdPPRna85JLz17EZaFMTHTi719PJDPNW2YYpuhxtqlJLf4/VgpJypOVnGYb+tkok5nLqokQOCuDieWUkDRJgWCKjHNOG2MbV36NEAXUw/ovti2hSc3uP9doHJJE7IhWAmgxQOVgm9XqfCUVATJgEyxNOTRckBHtUhTAUrLSRtdf2/eQSa39Hd0VF1Q4Vo/Q7kjRxuYLbsAk/585sPVcNa0Ud8o4Ks33zuyaBbv7KwAp/9xPtzxX24ZorKUYTo++z6aGeMmArgafhOBl3W30IfLdllWIyzlsTSn+ptMk1sk5TVNJBMWt37zPsaYvGyeR2X4BIP9ew/EEZ6UqDlbvGIhfeOW2LNzf5z5lGU5+TCI1hFzyJmn0cUPtVKfCOApHaPePJSk0EA5GjaAF52zgzDVzRSO+fXvylYo+ADo5s8xfMoX7dUKAHi2HcugECQ48Co1VNMP6BTCh+7BAAwCIfyl+yv5tABysbCI6/7gT5UnN13kmZJHLHKyBGU0KJQvpCf6VoeXftYc+/Dn1frw6ScCjvSxfalIspMYhlYL4DYe40HjNSW5jIYGteClt2PS1fAv3fDZ+OkGNiKwLt3Bkl53SuUpAJf80USrjAppMX56/f1x2pmLYudWnndO+V08ZcIyNgO0kxCGHsezTl3GutslgyRMOCiEhSmjpXKQXBp74pHHaHdZ7eIl8qcM1r7RqtJHqn0AXAOhKkStS02BJ8ebKLKWpHUo315L4LxfMsmegKr5VWF+c96CTijOM1iakvy2ML6qU9Bl4UkHFpHxJQ5tVkzgiLN9TQB+QVxyznOip346Gu58+BgNxyHIEjVdFeAuU+7DaxwFXJOuSFFBG8t1BHz83HHxZQC/e+OtuRFBbTPg/0QAl3ZDjTL1yIGj+cyzXsaldgn5TBkEzRClM1S+kFU6jrLQoGUcr7Mivp1aZrspoaRRblQnHv1bwG1LcrB2nwwuCHG2VmqeG1Nunj7ptz+5L9te1ZhgwXjz88n+lgMDeyLr6exW8kAqPCAr17O4/OWRqfZdspRT1bm8yt3OpNke+U8soa63MTVcwCcDeE8XwzJGQykg3lM98mMs4D7XrAJcZrueLdsB1TkO12lDwwW80vAnA7iUq6HKmibQvWXOh7t70kd+ODxs4C3AmQeGpnfMb/t1+yMDHwrncT5UDLLkx0k1wDXBydBsGDUl4J5RGChZp6WgdOoCrbyqtvr2Vk8n2pykzIrRaS1U5VpK2o//PN6WPFdrWe2r0FndKd1VIrOA06VAbPpAdSxxSg0/G8AbAJw+PF+jad9EOiXg1bAsM1Bmeocw3Pivb93scBy+sBPA/4U+vOwte7KA1xOIkMc6Hz4UyCW+DnNcJOiDgHR0HOOm4OWmA0EhjzhgWitvueA0hnPZrMf6Q6WZnT81bczc9iflgL8iZ0XlTPE/OM5bCgoW4ZFWKTt6fiXOnk1NLjd7b+Z1VFITrlqptXxVQeYyC+XoY2TDyrlCR010KL60WQDhoXk16daPBU4Nn30+Jv25RcMTcB/9XcpKwKUj12LTx+zjaYA+Cy3fmlvaBuBOw5UCfW1yRw7L2ksfvh7AcdrMmrNlNKwS5EqqR7VHYsnn9fQJ+HYiYoANgg0yBkLUeq2KOR0dFGfH8h36YG0IbKjlrq2jpPxkn5fcrhHM2UdP3pNU8GW55bcBmDzvz+QwBxVAmYU/1uFpcuQps2YeD0xVGaN6Df2A4D3Zc1a1mdXyvIN7skBLJPnlMCtPygdSFpsXynGe9LeAUwJanqTBk7o+lylfEJeeax8+LbqdLcOCqkymXMRoLfk8E7RXwNetW8dQyOerETyAEf4bYLZICWrBRW7HS+9JDTfSVvPSK8AEXI80qTz+BXrWd0Ky79GDVasbCWYM92Hio7yRSOfMjwzIdV8EMOpw1nxueksz04XOB8O0ZCb51IzMfEINj/LjkaQ8IqMtqJrwiIsnnTgB85Ou+VMas6xT1Fspw/HbEIrk3/EzeW82dMw5DtVrwwLFugK/S6IYlp3NfPhlFzwvxg/35GyZcf9RDXeZsozSuTcSVAHuc1MK4EaKnA0v14uXDuCLJmDSmTxJwJEeGlWNw58I4PLAfI4fEehorW9DOpFE4tmuQx9mwn+AJc/uWvXRFsM8hM7lbkadGmlAAl4qLWbtFAw5kT1jfp2C8WOu5uEvEnALfLTyHgm4fDmJmlGJylJGLzpDaN5HAL7gqTksGz/c/cQBd1tN7ghB+wQlBQIL8IsCvDBBv4BnqY4AMLNmjQOseMEE9UzpiZYuXoW1nxUvewgC1fPsV5Y5uaRXrHI9Gh5pslGTVjO1HIwy4zEP/ocAnu0+BeDnzH9qXJoa/iQArzTcgb99eE6eYAFc8dI+seW/qeFKJn2bnnAfQPey4uZQSyyevDyWzV1RnjXGHO+h4QNx75bb496NdxBTB0KnAG2glt4xKADrtNiPZa+pV/1EMP8FA26dj1dkknWKTCdreJr/k9tgO+ladQBtYPnWpJcuL9tP2ZVJF3ADL10jBfBG16XXNKCOyFWSkRvq6BD2EXh5RB9OZfbhcJY+HKdtQktMXjg+vnSjJr04bZaY0bMn2IfrF7ih0JmyhsPjYs64JbF8+tlxaPvhmDV3TkyZ2x3RMRBrj9wb/3njl9gnQKfC9pzcS2bQRmEhFS+VJgh2DqOgIxnDtXTEai19kl/JoJMAOs70J1nYk82e/siYm04FuM2F1yoAzEhA69iCnX04Jv1yAdekM3lyAuDEggvg3GyseB9PRl5naJU+3DBj2aSg20Th5HRVSGc3ppf58AR8TKTN8XROiozlVsW0Uzhtzq83DLREa+/4WN5zbszuWBCbHtwWS5YsiplLiRB18sCAwZXxbz/4DALHAwmYLzYmYITOf6aMMmnWIU/AcxhUA7wKS2bGJ/BnLKBVEzznqMFvy6uEaWxxpzrn9epejx/tXq89Ij0q4EXIzW+dBrnU7gTc7szZMgIvLmK87DyctuhhPpzl0uCaFtD71PCqMV7Yz4tW3ExYHvlBH0sj1X4LNhzqbFkJrbIA4kY03GEZodXiOJRI2xNx2qA2tbQewNuHJsYKtHtOx6Jo6KO7YH65dXxTtE1ujnu2354aPsSCiTrmyP1n0GSIOHw2WrANPgA2E5e0qGIGjKiE7SSOyptTJflQgZdZLOIkwMuQ8cS7H6W4vNeuy1QU4dFynlieAJ6QRjX8FICr3YJOHneqGHg5ZyF9+LnPjQkjAN7F5MnYSJteunFegU0N318mT3yQDqeTaMfA7vzQjDZR8LiMpQs4kTYAdzPhzwW4FgmvfFz9xFg0ZVnMnrAwWod9vQRPFJw5MQaae+MHd3w77lzFc2RY062XbhCoUUtC40RX2nLdtmApCjUGS/xJbBvl4f9IwLVuBl6OHgd8PIDnbJmA16xejsOPA96Ykyf24c7r+pQloCxMZayrDjXiuLnEqYcHApTZMnePlsmT0q8qcUpyjd0V108y6cLlx2d9u2Rn4rhpMWvSvJjVMyffCDDw/1B3dj9eFlccHxZw5WVhFwoLogXaWOUCQmxDKTWmiqlNbUx64Z/AP9ALL3rR2/4BveLeBDXIjU1vIaaNEQspIVq3UdMEA75EEVCwoNLP53ue+e1vlyUlkabp7P6el3lmzpw5Z8555pk5c+bmtfaPf77V5s693a4tw1eqprh+qjH75LJel+FEjQuEkaZuadMrRuxtw7dl+IIylIrbhGiM/6aEI6So3fqNM/x7pdLX3QnDXUyo4ZwM9yfS/t1wWFMJ18RpozZta9ux15wP14sT7yion2FGKu9kfAWQCXWBAG7Ko8dIHyNPjq7pW1zTnxU3ce5+78Y2vWYDo1J+FVxvn33xKUxG06DKtYFzlYVupFfSYvMdbiOyccF0exm+0/r7tooZVPSYihSD24UwyIz5F09RXfgOL581PBsPgzYxdqhhzj2vSe+OSu/lIs2+w60/deu99Eg4Kj0DL7zDo9KZLfPzWu1nWODFyeG3T3H8/t5770a6HbMWaRvSNxTg5IbGJms2MvASI8bn6aVj04aFksaFCps4OIFfAYIPDJcCahXAJdjpd6DnrVNzqGdcfkziKAgLTtFya+j7d26LpwlVePeUoI+V64604UzfsXd3WpDJmhSBXLaXnv7O+rI1w9CxJlmA2Oe/ZXzKt5T/FCDogKupc8mhtNeivD3hkC7phzgJXWAGYIuyhiiL48bgjR6FwWrcwsZdDmSwo5XSXuK75sxeuiZOB2H4zMRs20ynzQmvHmD49QIPnM5wJ0803/GBBC3G21Vi+hIVskYJ57Ps5b8cyWfZ8rVSgk4VGQJMzvYwVs8xQQMWVhu47Tr16lk8NN8Xp7CXPrnUrrIbkDszTK5eiYHfprQS7byn8OSsA119rTi8qpcFzYG9/vIq8diQubOfzoDWTeM7HQJk0QK9+gzlDfiUOga/oludO679HJxNMFYPn4UeYxUyRZItSpe0C9MZtWQYp1VPUBzpdzlHogf6ep16wOB5hqOJHIzCCnj39n102nAIwFj6lqlN8EzOFY5LMtzp0c5wS4tqgvEyFOuarHTYsGOGz7IXYPjrNR+uwZ7NzAmPSFJV2GJyxWF0TZyt09WOJ0/8rd3/wBZ2RVjfvsDQ37rqrM9luldYiO+I3z34C7WCWuHs/P4OjCPO4fl/A/Zvl1msfxVXoKzqwH5s5eoVWISiGXANar/EDl2945ACywxeSq4Es3EOREhL7BJtSuqR4PVY4LZyjMWBlyUtDp3Ai+MX399xXhuGxOnBW6/F3cEn/qqXzuTJjh/DcFaeLNvaNk/p8mNoICZfSsLLqQ+S0atHQcsBOoF6daZq3exUm3lgfXsRCf/ru6/H9WZNXaJiHBuX0OYecBwnUmibp858tXb29TezZ8naNVNYt7gX979YWns1Kv2jDz7KWIBuOd2NwSHe2a1b2oX3z8db4zUk222knS+/B9NeP89mUOmbsOfuJltZUx21R6ESDCZ/QwenyNUxk3T9OsgNh5B0FGGKSBbn0RNB5m4cJsT3bxHI5OGQ6OFg32dhKOb0F4Ggk4+jZffrvGrRtgyVVKP2XcrK14lreHHCA8STLjWC4bMwvJz6FDJLMnxu7m3ef0hqJwJp9Y1GjymtZf0WfLx81176S+00I23l46Wm6GT84ooOWKZeneEhCd/0n1/6Iqsw3K03znOwK9OyxXel06ES7tJnV+L/3Kpr+FDbRvvNX0S4cvlKfLhdv8EMHypIj0v22v3ZnVC1y+uRVKPvIxHA7gQc1TUxlGsjMdMt4da4eHhWA6oZhgqGOUPS+YYvIYdItQvXS5UxalQkrbz2o6w7eWisaq4YOcJsGS6tMv3q+vovJ2G4Kh2Gs8BjlpE2HTH1EG/KVr6+w/0sYyECPl4ceDGUUwAaD9aZpplkndJ6Fq9t2LGuvfTq8+3N99nXZAWjclhOCvYGky3xuwKydqBDDIloC5R91IBoYrSjo68FMt1GW/gGe9r5zBKAhORk/6LwFA6/gBOStzzheTEUwpA/fQ+lRxBd48gPsDR6wCawS7VX2T3eFKO+p8X4wMA5A1HUJ43JQ1pTaqcCoQwLJaGIE1JnLnsnOHEcZHZtXlNpzNaZ3c9pEMLKw2TKpQNNPlMopAs9W750MCS5MtF++OBP288eeYp3OFara7fyZWVTBE+hLBx4qe9w3+HX8HGSBCQW4Ncxvb3J4vYJ3Hbdy9DqdDv25yMsNeKzbBUFa7kJEbJsmbRW1Z+opigrD4LBnXRx0mOa4T1alKoGUa2enAPDJpQK/wEhrLCGe+GHDsB2+W7/jJThsfI0jRm61HFZzE1OcycMqIWAKYfYqvXw3NNQmGllnOdipK8IW5CFmSgJAyu3waHHVZJKahwPPdYp13VvDStPj7SsEV14lvlt+kEQfUhJnN4zWIjwyIM/aU/8iM19vpqKUx+XZfeh6CUZrhGjBhC9RYrPMiRb/CaRSF1vbt4+015+9YV25p1TbTlTl3oAdssF+/w3aXUSXKmOtSb5y+LCpkOQPp5DkTr1SlsppbMYY9+B59yXk3vTumxGjRQIXCOzSjRNgTdOEcU4foIXnmeDjDGXMMTAaPHLNYlGRgJcJ3YR3QcwwCSLuQKbcqKJqq5poyRM/UkzoiEPutQWQkITt0E4KLM/L003FGJBVoCybNB1C66qaaRchwEaAKVlI+Wut9+9/ZH280d/1dat3NQ22mmjDNcBJO9SEu5nmQzvFROBZStBACJPYtU2g2vrLTs3ted+/1z7459eiV2589o3+U1MYrkCQ0Df+oQonTCdoEOTLNVKIf5FasDItCnYSvIfAeUi8YkqZthRSxIPPM97zDNlh+i5HuClqnWwrBDWbBZF3RTQDqs0gwQtuD1X0poF/EbPojmGdAOxhO9/gg2T11b6EiRT8xiS1DQDDmohGW8IbiRIezYhiFleNRxbNFFpYFWMwhGwVoBnrkF/6olftt/+5ndt9bJpfMWx7BpLIcdQAv92DFelh8hJBiRdTtCLXrVsEoZPs2Z5azvyyovt7N/P8s4GGJ365QykzM9eQciurqGoElqEAFaHGab47oVRvBLsiNSKjGr5ei5gAC0MKWKRhuxWkmoXcQDapchlPZCHe6ZSae1R7aHD0AAtRwLS+RmEErz0xiA4yxexeXglacZVkCl+pZAi4wDOJGaHBErVvNoRLTuNYmHImq6B0EXLwt86ei8lTJs+gUyWRsRaR5HxLHPF2TxFAxt/5bdMJUKb/eqgurzp6/bovgPt6Sd/3VavWI+XibUszITGxe96h0sOhyYdDPn0s0vtvah0tlUQKX7KlH+Uy0L8lW2a/S03z87GEZ1uLsQsjT3MAFmBi3QdhksjJERVSFgVuPBfAPm3pEqZVm8cDWc++a35Q0zSpeWTtxNEKJYjIVX7GmbqaHCUjgaWP/OS0LVe8VgVGOSDofUcZlBH/awK0PJKar22vKKN+OprtQcHh/zyiBkX+aKGhaj49gpxaeh4jO4SL+0lTi+jMlmmOaJp8gzh4t60eUZj/xyngnqaUDj1XWv9DPNGjAPDL150epTVowx41Fw4qKRCVgqiQDA3S9/CRuZr2SZqNevCRMhgYQPcivgfHwtvWj2E/+CDC+3DDz9se/bsCROsW6xfBxzdTG8F5tJu02W80nT8+PG27b5tLB3+gfSlwfA1AlNljl8Waoc3Tr4Rjw47d+6gETCOwKvQpUSuITfoEMC92oTX8RkRH2L16yS+SwfHMi7ytWXD3jCDhwgbO4NWeTWr0uXYvBEjEs5YunuemMCOQhLSGzSjDHcH21kYvoY9vFexHqwjbYV6xe4S7t8KjDNrBvFzO+kLFy6kLp4PHDgQ32mnT59uDz30UPsDG+Xu3r277du3r83NzbXHH3+8HT58mBHHr9rT7B7sxu1r2Nfbfct1wnP+/Hk2uz+VXQ+fffbZNKJjx47hy2UVjQa3ttDHDeAtS//pBw8ebNu2bQs+0micZokcO/RnY1F3fCkPZPjly7jFIsyiif3qsr7ivVDCeQdfVKXDcKXCFqskyHQHIv7fGG7lDdbh6NGjYZB1+AR/so899ljchE+hpdwbVcbv3bs3jDhz5kyY8/HHH4dxbmWp1D/zzDOBdeLEiXbu3Lm2FW9TNpBfsL+p22KfPHmyHTp0KHR6jT1RHbHctWsXrkzfySb3Dz/8cPDpmqVLfCLHDh3vsag7vrwdw/fv35/Nfv8NAAD//+NUoWIAAEAASURBVOS9B5zcx3HnW7M554CwADYAiwwQmREEmLMSRUWKkhwlS7qT7Y/PSrbkcCdb73Pysy1L8lnSWTqbIilSJBUYxIycc1oAi5wzsDnN/b7V07uzIJh852ffvQZm5x+6q6srdXV1mERfsi9pSgP6l2GZdv78BduzZ4/19vbz2AYGBqyvj2u9z0hYVlaWlZSU2IiaGissKrL83DxLJBKeN5lMKk+G8f3vIYF7T0+P5eTk2Be+8AXr7++3T33qU7Z8+XK7ePGiZWZm2qVLl6yhocGOHj1qFRUVjvZrr71mM2bM8Pf33Xeffe9737MdO3bY1772NVu1apWdOnXKiouL7dChQ8b72bNnO/zS0lK7/vrrHcZzzz3n9U6YMME2bNhgn/vc52z06NH+Lp1GkXa84BraxU98F7/JwzvuY16ekeJzvru7u+3ChQuep7a21nbv3m1XX321nT171hJ9A2K4+DWQFEMTgeF797aK4X3ObIgWPn3OzOzs7P9jGA6DI/7f/OY3bdy4cXb77bfb0qVLraWlxcrLy629vd2fHzhwwE6cOGEjR4601tZWu+222+zVV191YYBRu3btsvz8fIeHAAH7/PnzDm/ixIkuDCNGjDAYXFBQYGvXrh0UJgTrnnvucYECHxJM55p38RnMisLAs76+PsvLy/P3vIvlYCh8iEznmwSsyPBz5875e3B6S4bT4MDw5GBlAwN9DiAyvLa6+t+9hkMwiIH2Pv/8804kCNjb2+uEOXPmjD9DM9F0EsQkD8RDS4BRV1dn5EU4qqqqnCknT560atHgXe96l1H+8OHDbk0oV1lZ6XSjDAwkH8LCNfSDmeCVzujI+MhwBIo8WNSYP7aH5zA2Mhi84zXPsWpvzPB0k57MtHOS2n379jnDESoAUCEMx6RnZqZMukwFjSjIy3fEqJS8EWHu/60TRAOfnTt32po1awYZAsHQQvCN7YNgaC73ubm5zvhIaPIDhw9Eh2nk537BggVu3rnmGYl6yQecQLvXazIw+aQnYMAsugzeYY65h86R2fEeuOSnLlKkPeUQ2jdkeH+y321Fv4k4gwxvVUV9AhIAAYw+nEQl9OEjZSog2r/nPpzGQ5DICG/A2/xDmyMR36wIjCAFGoVvCE6COTCd+tva2pxehYWF1iMLc14ml+dl5WXW29PrVocyWIUvfulLduedd9oHP/hBdbMJO3XylOXm5VqRfCYYDXzaBnyeRWEDh/j8bTI8w86cRcNheK+qT3ciYLgASstLS0rV142wosI3ctrIO1x69eDfJCXlmyQSGU7QaE55hqWS7RKjQhuR7oyMTBcQCDgwEKwDBKTd/f1BS2EwhMXU8i4SGcECPt3ht7/9d9LIfu9KRo0a5SZ+5cqVdvPNN9uHP/Qhe+LJn9raNWtFoYR94hMft46OTvvpT5+wfClQWVmp/cN/+57NvGqmfe2rX7UVKrdyxUorryi33/6t37LDR47Yj3/8Y6uUg9ki5/qjH/mwvfe973PautarrQhUYLgZfXhLy2675pqU09Yvk65mB/ao8WfPnbe9e/cK4aDRAHHG6zuZxHwkvDLMTWFBoUx6nvMW5EUHdSZylJQvkcxwJGQT9Cb844Gq8BQY4cbF7wcGkE6BcgKHPO/07+VlHR+1jcQ1oPkWP/VU7NY1LZdIWKYI5VnBQ/kRbNobGMpoBYEI/S4CkZ6oAacXjX35pZft4w993B786Edty5Ytct7W2EO6f/qpp2zs2HpbtGiRPf744/bJT3zS/v6//b3Vy5EcL0fvf/zoR/brv/7rYtR5e+nll+yzn/2sHRVzH3vsMR9Z/PKZZ+y6667zBnznu9+x3xLzH/nJj+3OO+60r3/9G5aVkTXIh66uXrtwUU5bZtJqqmvlcO7UqGOmWwT30pOJKzE8MJcGh+TUgUzO8JqaWu+/83BGlCEwXEKRifiIhC4vkE5vRagMCUBkNvCS0qB03iJYMOxyppH3XyPRZlLAFqFUH617HiccUUQCGsT2k/v1iWYG7c6Sqe2yH/3wR/Z33/q2/fSJn9g3v/n/2qbNG+0f/uEf7FO//WnL0xAWM3zw4EGbNWu2WwMsACa6rKzMvv2d79hnf+fTdlyjhb/9m7+1T3zyk7ISR2zhDTfY9h07bfHixbZ58yb5DCX2V3/1Tfv4rz1kN9yw0L70xT9y6zSg3jlTNOyUdb506azondTIoNyyElnW1d0ThJdh2eUMxyxFk04T0UbLCiYOJS+V2RlRq3F4XqF7tBArMjyRgeY4t1PUgYwQLYhFeKh7CZJrUjrXUyX+pV9DwjkE4coCBC6B2ckETEVgpcEp3oJX0Pw3Z3Yoh3aL6WrzgMz9F7/4JVu/dp199++/Yx/96EPSrGn2mU//jn3kIx+xm2662V5++RUfE9977322ZMkSa24eb9/97t/bBz74IQnFbynPTdbY1Gi/+Zu/aR/72Mdcgx988EFbtXqVlZeV2zf+8i/t/Q+83+Hdf//99md/9md2//s/4E6dzJJlZGZYV09n0HA1pEJlsjJyfMjt+L6e4RckeXutq6tHUiNGCggeep/1Wla2CKXGEXQYUTPSiuWA5MtLd/0W8CRmT9/OcKimlExjKILhvOcPphME3XQKgmtcqlsIRf8Ff2FQqmKvCIuhKnmcegM+9Ns85LFbI+m5SZIzXL1TlkcO7EBSZtLhpQAA5PLk9AlC3tHeYZ/85Cfl0NbaQx97yD4us/3QQw/a1ClT7ctf/rJ9+UtfsaXLlnr/zXgdh27RosX2jW98w74kR23x4kX2vve9z44fP26f//znbZnyMmKaovIM9Ygj/KUY/uUvf8ktwle+8mX7/vd/YHPnz3eB89arDZ1i+MWLF1wNCSZlJ3Kc1qB+BZN+wZ22zs7gCeKc9Epy+3u73VOEeCUyKbVqVElxgcyUhmUpIkNCZyoE1HUgaDqFgmZhD/7dJVBOyFH1vshJpweR4W+Grfp1z06Eq8c2b9rkXR4O7dat22zixGYXOJRo5swZ1i1zu2LZMmfANddea7kaCm7cuNGmz5gu81up6w3WKh9q2vTprtHLVyxzB/C6a69zRaI/njZ1mrz+djt4YL8tUAQtJz/X5RJhhrZdvV128fxF50WFgkvZ4qFn4O9gpA2vVJE2nLb9+/dJw0NwAi3HQ00QkJM0Z2VlWkmphmWjai0jW6zW0DOJYydN7R/otfwsRaO8Z4Thgemxsn45gnl639HeZesUiWpp2eGwMcXROcILxkHC443OUTTLfMegCddxDBrz0fUAJ3rUwIj5ufauSbhl5cjDTmZbX0+/CJ5vNbUjbN6COVZdW2GdIlYiW1644GdbjkgEN6P4+mXqSbgeFG00QSk7W2N5JED30GpA3jq4gmOP2sY3H0Qev2WAfHL2+nUNHd3719u+fgWNlIfRBLXTZVAFed3f0dMsYGp0IMdbOZRb9UA74LSf65BmZ3ugSF24O6EqMsTwfjE80xl+wUNxECqY3GDWM7rFWfiabVZUVmhjG+rsm3/7X+0Xz/zMispDEGNA2pEYCFqMiQ7sxsyL2JjLXjW8P8vHo5MnTLE9LcTs+zywkKm+By+X4AcfGhUZCqL9IgCNh3EQIHYHfFMOQkFICJ6bGwIolEMAIHyeuh4Y3tndLnNYYiVF5Xby+FnLVP+2S8ObvkSfHT1+0AayxZQs4Sl86ZOpC0KTgjDpmWgbn/lz/cHKid7OQK5xnvwpX8oM0xPCL70csIcnZVa9WFReMVLgHylLbed+MAlQBsAEU41wY0QdXZe67ep519hvfexTVpJT7NHQzDzxMFV2UMNhOBp+jsmT3bvdPAWNDuYgUwwHPtIPg0ePH2Ff+y9/bK8sfcEyC9XQjH5pjhyGtm7LxISI+RCIJokdkjo0Jtc6z3dbsi9hf/0X37LpE2e6hwqjcnKkcdKGyLjIbCSW1nMftYNn0JMGkpyYug7MJRQJk0IkCouB8CqXl+nv73bHBk+8sKBMIdEj9tcaN5/tOmMbt662/CpFxzLUncmDE3uc3GAQEzVSz2BSvRkSKP1NPVLdrmVop54pKxqHJgNzWHL0KRcEwt/xzPGnXbpOtYs6uVezUnTVvfJhWfFDfDwhK9x1od8WXbvY/vBzX7QRxaOtKL/QMnLfjOEy6fQ33d2BSBBZ+FoGwq4KM9RdFFbm2siGanv0mYdtx4EtlsyRScnqtX55vKAPMdF2d4gYjw8oDNmXJQOZb21nO2z1axvs8x//A5s8Zrq1d7S7h4kDQ10wNn4YwvBBCPhAvO6ebtd+mBwJTzm0vKury60F0SciW8TH+/p6rbOzy8vzvL+fdglUf8Ly8hXoqCy33JIc+y9/86fWnX3Jpl870doH5PBoeOltkQXxip36unJmpIif4l/CzS7ccRI5g7nOEE64BDixzrBM8qQxPXXJVwo8xTzBWJ5hFSiPgQwcR5jDB3BYToSpXzTP6Fd9vdk2dcxsu+Pau63YSqymVF0vlkK4kIZruHTx7Dm89D2DGo6bD46MXnz4lqd+uCLbausr7ImXH7aNLesss0gSlqk+X1o+oP6ecKDj5/ohrETcjH7pd6LALh5vt1Uvb7TPfuB3bXRxo6bszriJJ1wrvMXMEOzA1MP4qKk0Eo0JfRQNlDVwQgsvvYuTIggGsWcY3tHR4c+Bw3NMPQElYEtE9CzTCsvzbVRTtf3RN75oJ7sO2YyFTdadaLPMPKJu0Biq65NK1OUE4UsJJcMS0lS03P0EfxbeR/56ObgGLMoCMn6nrgctlYB68ErMHiofigZcJHD+D8aLRo5foHGyPduuapxvN82+3cozq6yisMpyMnPUxWCpBYNYeiQyfeQ5MbylZZczPEsddkJEpv+k5kyFHnHSiqryrKKhxB59+R9t8/61llGoium/hbh3DQiJzLZkXDVgHnQppmf15Vn7sR5b+exG+92H/tBmNs7yKUZCmsTlYUDQbk0NygxDD/psov0Doj70ysqWyUYYZHaQfuqjH8t04oQZJAiHGUfrgQcMTDuC2Kv7jq5Oy9Kwy/v2ghwJb6V99ZtftsNt+2zObZOtJ6tdJlJOkyyTMyaoV7hOcQqSOzcEk/5Rrpj1ywmECFg2BvXOfD3KlA9D9gHFMgZ65JiJzgwNwY+8+CvQGhr1CkZC0UrLwfUdsJxEnvV1CZ6uM/KDM0cX6fSVk9xPoAs0RcOsZJ71n8+0q8bOs1tm32mVuVVWWVBl2Zm5QgsmKJ8kSVaKeWO8RTFcfThzxd0ahyMAINXb1+NmJUvczpCkFFXmW0VjsT265L/bxv0rxXDaqYarEXiMLvByziQF1CCLzjSlPPzePOs+mrTVz22y//jgf7LpTTNdC9E+mMIH80x06dSp08ZEA6aojwiSKIaHmtTCDExclvLibZ88fdryCvI19h0p3yAIAg0DFlpFW+gWsABFgpdUuBGrBdGqy6sFJ2Fjm+vsK9/8QztwYbdNXzRRpr1ddchJBH+SMzFcAjM+honuDOlBUj1FXk6B9asLScjp6+nrctplZ4hhndLCDNEhu1dioZb0IaBZbqUyZJd7NJxTH+g+TlamGK/+syuzzd/nmKZqexS+Ft692V1iu5zrfjm2A4I7IH8oWxG0XHWhEp1kj2h+Mdtmj7nGbp1zl5VnlVl1abXqShuHvxHDmcFJiMFoDkMCpBmmgnBhuTS8qUgM/0fbuG+lO20QxRmuAI0zv09iByHUUMuivBjWm2tdR5K27oWt9jsf/F2bPXGuM8+FShoJkwgz7t+/3771rW/5qpR+CCxhhPQIgztA6jamTplucxfM9TDlUYUiC/Lz7JLGnjky22g1OBQo1k8okr49O4shSqUtXLzQJk2ZrBFDUuPlKvXjImlZtv3R//NFS1Z029SF460tecHyCrOkWQhqYDrWxhO3+mDZ/VI0wgnNkXNz9vh54dBuFTWlVlgi4dK/cyf07Ey7FZcXWckIWTEFQXo7eu3YYeFclG/lI8oERwxTm84cOad4R9KqR5VbRpHaIP6dO9Zmnaf7rLJWEbMS5US525J26sBZ+R/FVlSda31iuqRFcqIh26UsmzXuGrttzt1WlllpVcUSagnRm2j4eWuRl97bHYgWGoxU6yNNy5LpyFe/Vz1BJv21H9iGfatex3AIk5CGIwAeuhTDYVlOv8bghwZs82s77XMf/gOb2jDNGUwdaA6Mhzn058wIfUex5W5pZ6AwQqNG6R8TBTly8gqKCiXl/Xap7ZIIFWLFdA/kxzlzARFjeIZT2NTUZItuutFmzZktZkrrROSW3Tts2drXbPOeTXb9++Za87XjxPDzjnfGoCoj7kNp8FoczxSlE9KsNjF11a82WHd7jxWXFdmCxXOtXcGRjcu3qgsKy8QmXd1kTY3jbf2KTXZk31EN+waseW6DTb5qom1YttUO7Dgkg5hho8ZX26zFU3wFzuaXW6z9dJdVjqqwuTfPFF4DtvalTXbxRLvlqjuafsMEGzGhUl2AOiEJqLVn2ZyG6+zWefdYaUZ1YLjoNchw+vAwbAh9SzTpvan5cNHOCYdp7pc5zckWocvyxPBSe0QmfUPrikGGQxUYjJlLuIar35Ajhxn1fkomve1Ar215bZd99iO/bxPrJrsnHbUIpjALx+ef/umf7M///M/d+epzRxAzKHh4Sfrv/bcsj4dxqU9Cg9kfq/BjjdbbEZ5kpQt9N4KE9ZjQPMEWLRbDZ8+yi+cuWbZM3f4De61p6jhb2bLUjnUdsJFTq2ygoFu+AeY39HtDrB5+hTww+sjoyrElT66m8Xb1tVfbhjWbbNrsydbast9atx602+663VZqHV1euTzoGZPt5aeX2DWL51vrnlY7ffqM3fK+G6xl6z7H/fDeo9a6o9UWvn+utei77ViXTZ863dauVDTuumZZ2z7b+OIuu+nWRbZzR4scqi67+k4NbxOXRB9ZiraEzWkSw+e+y0oSNXLaquW0ySykLJV76ZgmCJehfpYVL7t20e/h5BB04W3QcHyXTDkXBaU5Vj2x3PtwGO59uHJh8N3ZgRAD6kOllAgAM2ikzJ5c6zjcb9uWtNhvvu9zzvBOOVCYYJwsYvT19fX+/Xd/93f2gx/8wFhKxIiYfj4vR2NCMd+jcQKOuR9kuOATQixUSJO1avTbLEmii+CaYM7UqVNcwydPnWodlzpkXuUHqL+967232Y9++QN7ce0zNnbWCOvL61KdcpzUXv+A/JWS2pnVrzad7BHD16p7yLNRI0bRaJs9b7Zt27rT1i5ZY1WVNXax/YLNXzRbSjOgUcpau+/9d9mWHVts/94Ddst7F1lxUbGdP33B1mrISr9+/d3zra3jkuUlZMXOmy19ZbnNXXyVndMs2M41e23BnGtt9869Es5Ou+7dMy2RLwsnnPvbEza38Xox/D4ryaixqqIRHpGLSjWM4fQl5y9ctF3y0nu6A8PxzPEWAcYcN0JQiIY7w2XSW4PTBj0oL3a4kESGM54jKMPbbJl0NHzHir326+/5jI2trLeLF9QaCRVMx5SzIBANZTLhkUcfUT/OWrMMH2oVq0/GDCMc5O/RpA6Wo09OJ8IIbqwv450LBZ68YJOf6UdM+tXXLrCp06dZr8yfPBTr6myzhXdcb8+t/rm9tOE5GzOzxnpzxXBF3hBgxN0TzFei6wGmP4fhA7l24Ui7rXxmk4RcK1hKyuz4sVO2+NYbRbGkLX1pmYIh3dY70GPX3DTPrc3qlzbYvQ/cZTsVWm6Rlt56/yKte6uxreu32e4N+z2wdc1ts62wtMAuHG+zlS+st1z5GlffMk+h1G5b/co6a5eQEZErrM4Rw6dbThnWSLS4lHQNvx2GW7VVF4/wLu2NGa7lu7tbdovhIfACw5MeIaIXDk5bgZy2Gky6+vD1KQ2HGK9nuCgiwsFw6JU7UGgX93XbjuV77NMf+LyNLB2jhYLnXfvQRDzpadOmOXM+9x/+g/3s6afkoUvYVBgNKC8t03Ctzzo1vu5QX8/oIluaSz/OdG6hxt8sx0Vgjh075h/G4zQW2Dy/9oZrNFExQ87VJSvIFUEvnLXFd91ov5J2v7ThWRs9o9p6czrc2cQHiQmBIl3O8ExZsrZTnbbsqY2yLFqmfO0N9uSPf2HNs5vs1OEwJ71AZv75nz8nRzDXJkxtUH+9xW6+6yYtfd5mh/cftevummftFzutob7RDrQcUh+/wRbet8Cy5H2ve22ruo1sm3/DXPlOaquGA8cOHrfqgtG2bcs267CLdu29s6wvR0NNDWv7LqQYPvs+K0vgtEWGh+7pihrOstbIcByeMMctLdXQgfuCslwxvMweW/qPb81wDTEG8NSVsvvyneHblrbYpxR4qSsfq+HXSWc47zHp8+bNczP8p3/yJ1oZ8oRmfqTN+hQXl4rhpYHhMtUX9WF4VSjHLZGdaT1d3ZoM6XUNx1LQBbDkGPN+WkM31oZXasXpvffdbVdruc+lC1pjpvn8C+fPen/6q3XP2Csbn7O6GTXWly8NF86uxylGpzOc8XxMPibuybSNS7fb8b1nbNTIOju894jNv2WOHWw9bCePnrTmGRNs97Y9Vl5bolmwqbbkuZVy7Art/JkLHviZec1UW/3yBl9BNCAv/dK5dpn0WbZlww47tvuMlSsamF+UZ02zx1h2Yaate3mz1VaMsqP7j1nDnNHWNG+MJRQQY8X5wMVg0m/XsKwsUSWG14hnaU6bz5YJe4IENPB8SsO7OuQdq10eHqSB0lI8SOLtDMuqm8vcS39DDVdkzeedUxrucDqzrOd4hrz0Hfbxe37bJo2Zoon6C26C6WOZu62vb5C2dvt6rqd+/jMxv8e9/TIxrkT9s9TazXh7R5t1S9txEPtkutG8fDl9Y8aM8bE9iwFx1jDlwGUKsk+e+yc++XG75bZbvb8k2NEnEznv+jmu3S9vet5NOn24d0NBTkUckSJNw53hmB0lhq6J/gzrONtte7cettNHztvYpjqbMnOinTp7yvbsbLWLZ9qsrLrYmiY1WE1FrbXu3mf79xz0INKEGQ1WO7rGDuw9aAe2H/PRw6SpTVY1tlyWdo9dOquYQJdcFzlrY6ePspH11bZrwz4Jwmmr0pBuwqwGyywVIrnyacSyZFuG9+F3KPBSbtLwEhhO4CdNwwPm+qtGnNNYlkX3XZoPJ/DC0MaDCxkaX6uPYvUEDK+Shv/45e/Zeo3Ds4spKpMvAvWLwZQxea/0+UkFXZJZYpKGINl9udZ7PMtW/mKdjSposho5FExlsjSI8jCdCZSurg7XSNZ3IXTgVS6mlWoeHuK3tXXIu7/oeX14JmepTYsP8jQvfMstt7jpZk35vn373FsHLpsMLl66YA8+9KCx6KCnU4KkPhr/5LqbF9hzq35uz6580sbOrJWGd7qzifPlWg6B4K/jwg0XIfmVjB8rfhP6MOXK5BHOZKYsD+1ixJOla19S40pDRK3XcvLCLCI+B/WgTAM9YWq4R0GVTDmU/dJaRhOEkhFC1qkR/OrXsBJrOyC+JHNEXye+nl9M2vzx19sdc+61kv5yqy5RLF34xHa4SfcYuR6B3Hn1bS0tOzXhkMZwtWogoRUwahDjzoIyjcOb5aW/yjh8pWUVQw19NE73KVJZhIQYDmGSCicq5ufmJlvDsk5F2l7+8TI7sV1bYRTs9zyqF4dDFJH24uAF6tIgnoMXmlqmPhzi9WjMzUpPhChfEyDFmhTp1jz2eVkLhnZMkhClYwMAQzzG9i+99KKctz772McftBtvXGht8tIL84rUNVyyuQtn2RMvPOxDzHHy0pMFmHThwcTPYBpiMoKQntLv8BfCMFetkfWRCRCDAm19JCRlIMjiz/XeJ2MEzGEoX0h8Bxr4C69PIyWnE3mBm8pCCJcuEw3u1bp5Dcvma1h2x7z7rKg3MDzTZ/MC7DdkeFjiFBbbU3lCjEvQh2vhQL689Krx5fYTRdo27NM4XJMn4OpChjevm8hw4scg5HH4Tu26OJVlLz68zA5vPCUBgaEqlyKIWwbaoYbFxlE3hKMvxgPvkXeNySevhN6jcVyjqbnScJYO4QCi3cClHH355s2bJSjdWoL0Cbtx8SI7ffK0hmW5tn7zBluy8mU7efGoLXjPdBt3VY31qw/v7uscnHBwJJ3C4epKDE+xJ7Ip4A8dKKJv0lCb/HbYM6fZYL6h9292hWAlmDKT1keG98PwCdLwufdacV+F+nBpuHydFCbiy+AixiCFUcOHMVwdWELRsgxnuGajygqsprnCNXx963IFXpAwLFYYltHAdIabxuG+bLldUngh3155ZLkdWHdCZj+YPBoVmR6v4z00yFSjystl0rUeHg2n3yfWT+SPgAoe+AWZ6+LSYnvPe94zuD+MHSdsoMOBY/PgyZMnpOEfs5tuvklLgDQjpjVrl7rabNWGZbZ2ywprXlRnjXKCenPbNIzS5ItM7FAKTPP7yzTcn+m1K6C+03IOPUMirpCiELxzhkspCEJhhEATmveqSxGNF4y/Nk3D5aW/OcPpwzHpPU5MRwTTRF+h/iQjmWNFFQVWO7FSTtt/t7W7l0jDJRBkwSSrD6fJhFYR9wHi6ETaZH6zFHhJnslOafjpwHBZBM8vk0TjqS89hVv14dJUFun3KXDBsOzSpXbvBdB63p27cM7aOtsVU2dRpbk5x6TX19e7E/eM1nV3dnbYRz/2Ubvl1psVeNHcubz0qtpqmzxrgv35t/7Yth1aa1NvGG9dWRc1MYO5Tccl7foyhg+z/OnIp1+jhNBDWokzSeLaLVXKVPMsCgDX6elyuvg7wUO6CGwNCCcmZfrbM2XSYXjQ8JqSkerD30TDL1y45Hux0HCcHRCgD+g3bZ8RLxXzUmCg0Bn+iPrwdXuXWZYYHjQcHoiB4pJPLYpgSa2QoT9EG33W56wY/s/L7JBMOsJDOJBGszQJTeTT2dnp0TGcGZ/vFQ542vTjkijr0HsEqF8OHuabEUC/gjA5eTlu0sGZsCrz4Zhzhmnbt2/3+488+GFp+M3utJUUl/kCwAkzGu3r3/6q7T21TbNlzZqp0gIIOUxECofSGzCcx/TFQxlTV5c9gUQ8QiuDFA8rcSVhH5bhSjfA8z5cNBZnnOFtmbZgwrV2u/rwEpn0ysIadx7FEYfwOpMeGL5DhNSy5CwYLokUw3HaEixkkBkscIZj0r+vcfhwk+7To9JW13BVAcMx6ZIES6gPt3M5YvhSO77jkk1qnKJ12RNcqBhGIfFExQ4f1vBGY+cQUQvz2mgyzhhm9oKigThiMJ8ymHXtcxeeGfbud7/HF+6x2oV+fL9m3pg46NDKmmPHj9kHP/QBu0P7tphoKNHYPl/j+PHT6+3P//aPbP+5XTbtxvEKZpzztXtvS8OhI/3oZel1mgqfYRCftJSe74panJb3dZfASjGcPpz5i36Z9Pnjr7Pb594jhjMfLoZr6dmbMpzN74x/I8MZUogVwWmTl17oXnqFPSaTHhiOVlN3aj58kOFoOCY9Mlxm/lyuM/zotvMaI1YroFLijIWBOGMM09BMQqMQwAVOfRBBGRZJsHKDZVE99OECi1fuiyc0N35WQRSEBBOPENTX10ugmrWo46yidj/zdw986P121113uy9QXlKpacwiGzdptP3xf/2CHbrY4vPhnYl3yHC6vMtSOiN55TneLsNdMi4D+LpbQVT7hzNcCys6Mm1O4zV2O9OjyWrX8Ldl0glVZmkOGcTRHAUv5bQxGy4nqZTZsnJ7bHC27J0x/CV56QfXnXIve6gd6UMgtUNmngTD8dLRcJjuY1UJBUOs9otamaJhHNLbp5h9fkGejR0z1odkRAvBncX7CMC6des8jHu/dm3cc+9d1qfpXxieX1xoYyaOsj/5qy/ZwYu7bIYWQHQmzvsS7Ldl0kHynTCc/GkpXTAGNfxtMVxA8DGGaXhg+Fwx/LY594jh0nCZ9NcxHFsD0VgMd54+XBoeGD7cpLM/LJNhmRheOb7MfrJUwzKfHsXxUt2C4bNlXOG06f7KGh76cPLEBsNgGItmU85NkNoTtFzMSUXMBtTIiwqqsBCf6doCjcMzteypQ8EaGRZbuPBGq2+ot32trb7PGni52tN19sxp27d/n733/vcqvHqvr1ApLir1PnxM8yj7i+/8iR04r013i1MMx2kLzRI+JCET02VO278Nw4VPNOkuINBclliRtnkalt0mk17WX2kVBVrxIgvt9KQVcnbcxQ6b+8KBADsVacOkE/hwRuDWZylipj6cxfm5xTlW1VRmjy/7oa2X05aB0yZiM9nA0iCPzHmkTUTT+iwibcxyEXjpO5lpL2lYdnjjaZ9CxTEjseQHmrIhjn8hQeQQucJDL1XgRRLic+SsRE3KacPZY1qSdXcdCreyDKpEwoEgEWadO2+ur5t78smn1O932gMf/ICO87hVwpLU2vRSy5ajN6pphH39O1+zYx2tNn3hBOvMUFAI3yPN/RY4JZFN3Ywjyu3/jhQAB0gO+20CpZxMOigSfXNrxBqEDi2AaJKGy0svHah0DWdSZZDh2jemRY9hehIGn9V8OOvAOjUZQcPwmhnHaQWiCKyFFVqjlVeUYzXS8Eel4YHhioaJDnFY5kTpJbQqhhOxEvGILjnDT4jhj4nhGzQsU2SIhQzkZ02dhzJ1jddNIrBASJH62TKDpw4jGVN3R0+ekK00nOXIOfqeNWuWz4MfkuPH8KequsrDslu1dZfpxPe899126+23edy5qKDY18WNbKwRw//ETnTvt2lieHfmRcfZTaZjIlz+tRiegv8v+kqNw302k/58kOFXaz4chofJE5TgHTN8QMuQGXHlJvJl0jVbpkjbIykvPUORtnfM8E1nFChQF6F4PcM/ZnRwtCAscWYWLaC1gc4DPiRjXM3q1XNnz/lKGTIjkDhuA8pLJG3hDQt9E/zRY0d9IWSbZtU4ZYGFFKdOn7IHPvCAzP5CaYfmzovLNZTTGvumGvvP3/qKNPyAm/RuDcsQ0v//Mlx9K+vOWUabl6FzXZgeFcMf1jh8/Z6llqlY+jth+IuPLrejW87aiIqRVl+v2R5JIPPWaDkRtLNiKJMfeO2Yd1aAwGxOPUDD29rbFCnjwB2WXMmnUD8uG6FuqMuHa0TectRv19WN9uVMWdrV8ugjjyoil2833bJYsfQbneFlpXLa5OiN0i6a/6xh2eG2PWHVqhjuExX0U6n0f7mG75JJ11xbmklPstFAJj1XDEfDa13DFXhppQ+/koYzexRNuuibZtJh+JHNZ6wsX0eHaEM8mwPOyKliwoYNhyRfXoW5lxfKZAnbZav04TiLdgkHHxZDsKgSIWA4huCMFpOxFKc0jseDZ+zePLHZ1q9f7/39HXfdaosW3+wLC8vLKn0h5Chp+Fe/+UU7fGm3zbxpsnUr0pZkq80V+/AhIXBE/y3/vIFJn910tZy2NzTp2qSi/hfnib6TRYwMado7uoLDBtHVh2Zky/kSDQi8FJZqx6UYzqpVxuHDnDbWsMkasu0l9OnqBxReRXtz+gus+4jZy4/DcK0G6WJiBO9cMWD1wZh3tDBHa9d4lpej2bXuToVS27RjNYRQ2YPN3ue2i3LQZM6ZKWOnCRE31rDV19d7QOVi20W15ZxvpsOpI3p3WkJ1//vfZ4sWLVIfPqAInBYWFObZhOmN9oW/+D07Ig2fqj68R1uOtMrOh4CRn1HDwz2O25sn92PePMv/+ts3YPic8Vcr8HKflWpYVqFhWRZOt/6REpqOHMbw8zKlu3busnZ5wdFL91Wo2gnBbgemSAs0LKttUuBl2ZWcNjFYDGfyBGayxs0ZTv+fLLSuo/322uOr7eAGjcO7A8MhDlpKX84JkARS8DohsgdjFDb1BRBa5sRD8jI9yoLGbJlrysFw+n1gYerZnKBLHY5zlY1rqLef/OQx1/APffiDdtUsLfcVWkUF2kVaXqJFmAn78l/+nmVW9qoPn2Rt/RpBaHmRWutE4g+4YPFCit+p2yt8/ftgeLVvNbrMaRvOcDScBRDtIuiwBRApLz2TyROtS68dr9CqAi/rX2fS0xiugTGTKb5qVQTLloZ3HR2wZU+us/1rjmlMqPfyxGEMPn78hqFoLQITxuU6hEDMhrGY7VxZgITy9Ppa9HA8FhakV4wGHmVY5wZAdpuMHz/eDh465ALxwAfv1yb6+YrUyavPyrXV69bayytfsFOdh6XdTTZhwVjrUKQtS1ts08fh/9cy3DV8V4tPUOA5h3E442mNr6XhCYU2izQ9OkIM//EVvfTXM5wFEGh9XKa89Mk1dnjd6WEEheUwPFcLC+l3cby65IRhjOjPMd8IIFt52JrjgqIyHkcXg+kGWPBI18S7ds2MEUjKI/QqpjOGJ8T64Y9+wK674TpfT8Zmi9379th1Ny2wNbuX+tz+mBk6DC9Ha7yl4Vfy0sFzSNPD3ZX+/h+j4ZHhaHg06T6fKpPuffiA+nAtgIDhYdUqfXi603ZlhkOAjC7tDz/Sb6/+dIV1HxuwrnM4hjAzjLv7FXQJq1RG6NiLfe6IsW8c45pNtEgTJ31idrti7ZysgDOHuerVWrXgcRd4HJ5YfLfeccIU06WsVWf9O4Jw37vvsZtvvUmrVtt8McVFrf1+1/132Subf2VPvfaI1U2rskRxjx+b4fu8kFSloOFcYY7cJHHzhun/C4aH+XDhR8+DrxvH4YN9OCadrUbD+nCd4pRqDUtxztKHu4azGS6l4cSKtXKFKBjOWIE0vLa5UrH04LRlavcolbJAgjVt3udTuca67u1qkgyEwmZCsyVPr7E7r7nPxlbVu5n14A79vfJwQlSJYuY/+9nPdAjucuuS4OXnadhF3FTExxv3IZw02aN08EP4sTiCfWW9muVj+TKBI+LwjNGxFmw+pJ9//wPvtauvu1Zrz7SaVtG2E6eO2x3vudWWb3/NfrnscV+m3J/bIWRVG466lvGEqgk/gwLCKYuncCbvSAgkXQp9PrF+xqgs4HRRoZAuiIb5GTL+UG0hDk5Z0dzp7+FR8pBff8Jrz+OA0u95Kp75HLhGMQmtKAJeUsEuthrN1Zq22+bdrXXp5VYlhhPFBEdSQsEN1Uc/iulMaCEBGxG0n0mEZvKE5/ovLz1oOPPc+Zot8wUQGodv2Mf0KJUKmOrlUIDIcA+1CiGibVSY0R02E254aZv9xvs/Y1MapocAiqMSDrbl5OIJE8bbX//13/ix1UzXMAcfkhopqYjz5bF/d/wkxew8Yd1Y3Dceh2q0IVdMLy0pttu17ee6G673PWBYsFNnTvi69LV7ltuTLz1i42aN1M4TLWKEyk54rBf46x4m6ZkLn8uz3vFcisBzcCUP8X7P40Ih2kAcMSXB0FZZfa0AgqNhH74IwuPEg3GeQj2pG+XTVeBX6rXKUCW4AJeREbj1au7jUo7Na75Bkba7rDRRKoZXiuFYSRRGYC5nuGt4ykuPDCdvJitX8IOYD9eOiJqJYYnTWzNcQzIh5NZCe7DaD/bbVq1Lf+i+37AaLZLvkibiiMFINJajIq+SZ81Wo29962/FPG11lXMHYWEc1oCpVJiJZvQqwoZZ93G7CAccnnvUTg1knzkLIPD8ibBNnj7Z6sbUIZk+1Xr89DG79uarbaN20Dy95AlftdqfK4ZDfBHUGSrz5IKvR74SF/brvcexRWftuRbB4YDTFE64AmABCHv6UR8w3cf1+nbBCQxIldAXhVUB2VQvDHalH8rgV7wKF8onC5pAmTT9zKjGpOHJS3k2t5nJk7tNsw9vj+E7xfAODcuiSUeDWOIEovKRfSsMDI+h1TfXcBpNvy751+RJ1+EBW/fiFvvYvb/py5RxzGAijIJJcTPCo48+6ofO4U2z/BeCIBhs+4UY7onLWcOUktQjKCH52hQlD51Fk/TfHJMF/ozF73/f/TZh0nir0ZFjtIV16SfPHLdFdyy0Vze+YM+v/pmNYSOCthr16wivQa1wXkibvCp9o8nqRpyHqhNhg+BZiggS4mUjou+aVbt9RTBOK3m0Vt+Rd65FzoG3EkLCF39TnB5krmcIfwaFQPQUyZzZHCDAvIP2DbuGz52w0BdAwPBKnQARTHoQsNdp+OtNOlIEfRQYUSUynO60VSrwwgIIX7WqRYzkudyku4YIQ2bMuA4m3Wz185vs197721ZXOdZDqGgPDIfxLC/mSGoOp//Kl7/iMXBMJd0EAkgeCNNHoAhO6j9eO5qIloUluVJgvQcu79GYYs17c0DenHmzdZDdPOtq1yHzEp5zOpP0g594wP755z+wl9lqNK3aNxN64AUpwqox1SsB4R8Jve/R+vNuRQZ7tY48iTALtxwtwsjWR7KmKUlZG4akIgoaGIqm8AlAHBZ0UT+k15j3gKtruW5An3bxPyZvk1sIYSErxaQW/hVLwdgLwJEfc5tu9OnR8gFtRSjS+e7CbRD315l0xuHqw33VqjSKCny2TBrui+3Vh+cptFo9Iax4eWuGI/r6qGGsaWs70GcbXtluD937Gzamcpzm37XZQAmG41yx0GHOnDm2bds2+/3f/33Na+9zZxE80HCGicxvczrwqNGjbPu27R4ZjDDQcPLEft4JpJeY9AkTtF34phtt9pxZ1qnTpsBp5+7tduPtN8hhe1Lz4S3aeaKNCDLpfa7hsgIDmtjRiQucecbGRvbCnT2pSJ82/iM0fYoWwkwEPitXi0NkSQokXCPqdDRpSYFl50tYYJ60XdF+39AvQqpqWKmyYh6bEOnX+UdfzAkSlPHFHYKLjwX3EQqmmX0qmW5OgmaZOuQoS8NUAlzMh3dka8WLNFxOW5mmR6t05IczHOlRUqRN8+Fc6AHEIvAS5sNl0kQ4iId2saYthy0rqihPodURkyrtkVeil44ayMqJgOlOGwR1T9ZnnhiH5+lAgH5b/9JWe/Du37DRFWN0iNBZN+XUj0dNf0ug5JACJZ/9zGftiBYj0kgXc280+bRj8rrrPYpGvmVLl/qcd6ZOOoBIpYJBH3/69Enhj9CqHRKWpsZGu+HG622hNiKwbbero9ueef4XtnrNSi1c7LD575lm9dqI0JstLz1HTVX4NbNPwR6dXHFI+8X27T7gDCvQCZSctFis6VXomK1IHStwGCGwkoYVtedPtWlxRY6OExmjLUHVpm31GrSEQ//6tZMUP5RFmAR/kj1iXLc+mj3kPBaCRtCtT3uHYH52rqZ/BR+GgxOHCXZeUmAMU5KrrlafrEKZeGk8q1bnNt7godXypObDneFBcZ3PMBxGuyYIe7b37GrZ7YEXN6HqV/3QH2n4cIZXieFxEeOVGe5eOtINwxErLWJkAcTSn62xj971SWsYMd7Xk3PKMNrNh4SQffe737Ulry1xIcTxujyBL/k45KdBjMzWgkuCKwgNz3HsmBJl5Qvmnz6OwwLe/Z77NIM2W/TO0pakWp2ikG1rNq20H/70B1Y1qdgmXjPOujIu+fZezmfpvzhgm5bu8mM7GqdoH1hDpZVWlFh/p3wO7Q1PiC49ml2D8ZzuSP/OdiyY3tpywA7tO2FVoyu0obDRMrWCOqE5iQzRwxVBdJd6SqByrON0j218bbtOUJT/oH+0IVPnqzVMqfO2tF3osNHj9Hss2w5axznWKmDJtM+vOlubDEcLrwqPNLIufX7zjXbnfP00R3+ZVeZXu7D7SEGl1If3ihZhfXQclqHhLAVGYxi/Mq5NysT9yxgu7VQDYb4zXAsgXntqlX30nl+zqY0zpBlhOTQml/4bU8x4mV8WAi+uSZhziEqcnJg5fTnfzII98MADcsjer/wipIjIB4LxIzTf/va37ciRI4Pz6TNnTXfBwHxyEFDNSB2LUVdhf/Bn/9H2nNluU68f7yad/negO2H7Nx2z0/svaMfp9ZahHZpt2p1fUCJLdU54nu+1omLNHlYm3NQr5K8NjyV29vR5WSoRu7JKdR+zTeu32Ljm0VZQlW/ZBZqHrypS0KjDu6Z+Lb7N7MqzwztP2ZKfrtMOV22aVHyfqV5WFrF5cOeG3fINcm3yjPG2r+Wg4gMSBo33j+4/rm1eA7bw/tlWMabUg039ndo92rxQDNfkifaWVeZHky4LouQmfVDD9eCMNJxju3BK4moUN/caQ3LuNkOkYNLTNZw+RkS+zKQHDZeXjtOi/iZbx3ZxIMDq5zbaZz7ye9Y8drIzME/LjATAtZM4OVObhUyggKH+ukl2p41juARPfRrCyQoWJlGwDBz4yzCShJDEod7x4ydcUDB/2mXjwsvaOc585YD/vKJcK6wqtL/6/tdt5zEd1bGwWbNl7TKlST88Z/XPt1lFUY2WS41V17HERk+utelXT7LWLQds9dNbrGZchV1913zbvn67nTx4yhbdtUhM2W8Hdx6yq66fLjPf4ztDpy5ottxKmWDFMwpKZMYJUNHlyZQXJsttw6s7fFdtY8N439bc2d1ho6TR/ODAi8+8Yk3NjTZ6zCg7c+ycm/Sezj5rkWKOkPO84PaZOi2xx/o0VESA5rAuXbNl5QOsS5eGE3jByVAaZDjaBIGPHD2miYaD7iiJ1MrI2FfOhDScAAiakSeEfRz+iiZPYuDFTVrqyA+1C2dEhVwQxCF3KHKTRXb+UKetfWGTffqB37X6qkb3sOlfldMTjCI0ikl2s6a6ByRMaC9bjkKfLNCC6QsgNKHCXDthUPaHM1xDAMAbCwA8PggJ1qpY69BZEpWrU6A7NQVcVllixSOL7C++/ae2++QWm3Z9s5Y4tcsB08SNVjqt+vkW6zyr1TQaHlaMLtO+79mWo/5y14Y9tvLpjeoSsmzyfJ1VI4fuzNEzitrd6fRa8tJSbR0+baU1RTZrwVVWK8HoZgtTgmM92U0qEinSx2b/5IVcW6WRy5FdZyw/R/vdJWxsrGia1KT9ctm2eulam3/tXOvQws3D+47ReG87/tZ1d86x5vljFXPR0Sly3JLabjR7/DV2x/x7xXAtGtEiRuY/EHLSIMO54bC7PXtbtcX2mDQhSATM5gTE6FHmSFpyS9T/aRzOsGydVq1m6Zw2QXWJRYsEX7f0Uzhyupb3KE9IDpCOx+AkRp129PG7f9um1s3whQxMchC25Vx2xuIMqRA+4uiMd9nn5R4r1chUw0zphvdZNAPN9pkt+Z/u0eotDfQxumCzqhUi4XwWato0V3C7FFrl9Ih8meexWrX69e/8me0+sc1PT+rSSYyijI7PyLD1z++wQ1uOqxb9fsiEWrvm1rk+LN26RqODdfttTN1oO6ojuPqS2pqVl2W33nmrTHKxvfTCK3Zg50ErKi2yG+++zg8z7NV5LEniGcQlGK7JycrRkSGnWtts2dMbrLSg0iZPnqqgAfGFfo9JbNu8ww7KjC++80aNFEI7WFF86PAR/0HBG969wEY0VVoyTxouJ09ouIbfMe9dVpEcYeXehwea0YZhDGdj/e7de3wvddBuxpd4uIHhwtH78SGGs+JF24XTGA5j2EvmHzEF1tANyLPRECffei4p0rZ2p71v0Udszvh5vtkPjXQLI6bQN7uTxbXMMKtpCZe68OBti9kIlzjoUs4V1oohSl52nr5ZIdPrU6jAgnBoOOaf9XBZWmPPvrGLl7SZUI5ehnZlvLTsRdvUutZyqxNWN0m7R3PkTUs4unVQ7brntssKF9iYcWNszYrVVjdxhB+us3fLPtu+dI/ddPdC2755l+3bdcD33C2+a6FOiW61c6fO2ugJI23PxlYr1F682YumW7YW3WKiGZJ5O0Qqzlbbt+mobXhhlzROQ05m/bT4oqyi1Cbq5AjOc8G/qZ9YZy2b9vpxaoz1u2Sd8rVPf9F7r/ajQJK5obtKyqTPnnCN3SmGlydrrSJf69LFP5SE5Az3K/1hPnn3nj12Upvn1Ut6pmBWhxieqahXvg6yq9Ww7LHX3pjhzgQ1zKtRCNCPzvYxbZYdP3DKmqon2+iyOl8lyxDHEVJmolYwNNsti/psDXXwsNFY12y9h4F45/1iIom2MHLL4EzRVOPEd7/WWxemXq2P45rYc77GyghFhwInrKj50T/9UH1htTXMGK3FELJQ+TKpmjnp79RJjqsO+hmxM2bOtC3btsjHOWmT5jTZ+RNtdvrAObtq7gzvgrZt2ilLkqHTH0arzz5kDZPqraGp3v2h/TsPC3adjvjU8mlRFqtFn0oEMVPj79bNB+1Yq5ZkdbAySMKrUHR5dZnV1lWLya02ul6RQaUDu446PQku0b6RjZXWMH2cDgTQcu0CEUHP+juSNrsxbCYsH9CxXfkcCHAZw9EKPpjW3Xv2OsMlg5QXoRmLQyjB03oz+vD8Mp1PKob/RAsgLtdwNMrtuPJjtpwbgkXsmtkn9mR3t+uE4zOagryooIG0N5he9Wkqq5rUYJk6zLkQYAyO5wAu4OgCpL++/Un9OikyXK8HBYNxK/lTBXwcq1ZKCEJZxsA0CsHJkikurNDCx2L5EnkaFGXILmKlpHF9OgZL20n9fDrFXqy954LG1xq5aDzMXi7OUUWD+J0RJm/AiKNFshWEcQuj9uFEZqhvy5Yg0YLwUTcnP4etUwM6S7WfU7NcFlQn6+nUqOiXsPADQeiWX8MvKOC4kjJzhC/je0Xa6PfFVmN/+Ox6+nCcNk2PouHpGxEUkvNhGQAAtHuvGK7xa6BlGOvCcA8RgqBMZ0E5TpsYvlRO2x7OaVMT6Ftld72vxWmTdjux4QZcUln6Wfe4BcN3SSj44cM+xZ/hjTNIWSPjXBDUNoQMmQEQ78KflAAAn0eOcLgOD/ypX4IbVsIFBsEVIqHrEJFkLbzLwtSKcGypYsGGT2eqPk6BJrTKUR7hFyDEHEkux24Q2pQ6hOroOqRJMNOHsSkkUBhQxD+R3VDl5IfpMJxJH0QcHcHMiweCg0b6LyToWXirEvRp5JNwoVPAJI/v9NGwFxEAlwEFXuZJwzl6syKa9HQNl5MjWgiCEitG9mDST50axnC0gnahoULRz3ipnYTTJpN+OcPFPKaEHXuaL8x80ZyuaShf3ggJgN/7c10qRYaHO/6Sxzk09OgNrjAm3mookUpcUevwJM10YRRzHCXlIqM/k1C4lylNBCC8YUYKHySVgjMaNJVHzogIB4CD1YeaU3zSY+5FDzE87Ep1IqUQBCe4SCP0CJT0ed3u1TQB8Ip0zwlZjGLwOUweepJIm/aH3zLrTqvOGGkVeRqWpe8efTsMd7POfmkxHLOD+RsphrPiZe1ujvygwpSGR4ZHwvOt/zH53K9unOmRGvGlCOJaPXjPheqFjhCAW67pYrhOJddcnnuG+FR5KEPhwUQpiBse8EaYU4WepR6GWoIiwmfKC0+HHUEhg44IZfQRTVyIQtYA/LK/keEuRbIMqE5IXKeYjbB50jeP0+nDdXzteaCLHqiMMxzp9BUv2j2qs1ZvmXWHVWeO0LCsUgrIOByAAvtOGM4hsc5weYcjp1T5MuU1LcsV7RGgyHCGZRDKqa1KuKEurw/KpDVmWANAhxQQC9fhL0MttxTcDnIfOMob7zHpwEsVjyLhRInPIFoa5/xWj1g54s4ixYHhcFIsoi+nft7RLSmvVwvTY1tolt5fMQGL5AQHlnLyzJ9TShc8SjHbLQh1UCYtuWByT3klL+l9JAznXv25xvTsLbtq3Hy7Tcd21eaM0Nr/CvkPHJ/txQLDGfpQPxsC9ux9vUl3p00CGY78kElnTdvkMA5npUimjk8LDKdfSTHc+yo9p69TbZDP/QARyQklIvlEf1rTIlKgFjWTZ6wKAUFwDC3lIi2RSXmGtC68cyGhbCrRZj6DT0TkcB36WSgHUwPT1R/SlWFqJeWUw/H06Bh3EoRo/p3iABoE7LkpEcr5K1EA2fe2iH2OFwX0HPyhL/n0B6UaSilYrkXhaSila5lcsRubJToHhmfoLLypdXMUabvLRuWNttI8HcXtkbYAR4s1Yh+OOTVn+IkTctpSlXLmGMMgCOGWR+a0sEK/ortBAAAu1ElEQVROGycxLvlHHfmRWuLElJ6wRWgYGoWmgkjQilRzhKAa60wnD4n3NIHiVJpqYOrKc4EMRIEkSLhzJOTzsqnHFFWNyvdWKVWfZ+U64Al4Z7ju0SgY4SFQ5QPFIAgBvitabIJeer3ejlh/qAOYweTpm66I1+TzvOEamjjTZSUdB39PuRSsFCg90bPBPwIRhNFx0Z+EHMxMLRSdMW6u3aw+vDZ7hLz0OHkSYDnDPbhBTTC8da8CL2K4YEFMjqxm1iyTECArT7RcOa8iS8OyCnv8VW0XxmkrkbBoKIHH6bxRfwL42G/QIP7H5JdqfHikt6l3/sWNCjsBgaEPEu8w/J5yocCgBnNLmUgg3YI7n6FnQArldDE8pcp6DqrXhed0eLFcCs8IQu9idSmUBZO8w4U2vSKGveADnYJwp+oBV5XFV3KpYo2c7t0R491gnUBLr0PvsFI4ezBcy8j7dBbxAq14uU1nvJQnFHhRH473HunwBgw/oW4LLzbWpJi/ghokhhy5+pGbusnV9sRr/2xrdi7zkxh7FdNzzYaRKufEQPR0T+JvhAbLcM74FxBJ5UlRcJAYXgBSRAh8q1QKkBOIJ9Snb7qVmBimDcGPT9/oO8Ak/7AkoLGueOH46rkHTsjseYaXo0yqKYPgHA7PnR6hvtiWEFQC99Rz2jNIi1T7AkFDhY6nGCyr692j9wG612gio0s/gcH+8PmcAFFtZbmVfpJjiogqI8qkazjjcI6pdImJ/QYNZGyqb8aJ+SXZNmbySHv8lYdt1ZYlll0iZHE6hKh33fR9EWld+vPhNJFAudoOUoYGxkZCpShszkyBd4LxQikyJkblcKpiFzQYRkwVuKxaLz0MmJ4E2g5pHXV4iszhxpUIwfIGpXDlWikl1OEm/I04pj8bvIZOET8hGHH2ZyCsdx56DWTkgaOcTh/4w5JxtNt9CeAQ0VSQiMmT2xfco988qbHSnAq5B5o8CY18Y4b78hkqltaAEGunuCYezZQi56L85PmHbfPe9YpUgRLtlknHvKg/938petC22MDYaJjlpEs1nOfhEkghgSN38YmD80JYGjz3MJYOsFWvUiAKzAt1Xl6vD58GIXoRL0MAhkLkJ65PEin9WYrHyqcejfg+/zwvuCmPyOMvvdTwP46zP9JVCvdYnscBHtV4bQD06yBYgwVUVi8cgANTJuXQMNkxTXl5jPEHdHzdzAkL7K7r7vUxeElumTQ8LDen5KDT5oir9J5WZsuOK+qmJzKL3ocTuxV05q39p4mlwRyTcezCITvXecp6ZM7RWNY/i1xqhfJD8VRrEQT+gTKJxnnEzU0wLeS/4lBy+Ly856e4/kl7wtg8lI7XUWJ9NCZ4obJgCsE7Rqo8Sggu5BBc8OLbUdO3HnjdwPWNDYP5cD5DA2JgCpxJcaLHhYP71JBqsMF6FkqGelUB/71efXk9wECBwIVdNE7/VL5IO2D4NYUEceiaO9Eq1WyPbopOqBC/glSWU2OTx06x4iwtpigoTSltwChxqeN8skCHzDryQoLp0VOKtBFrRtDx0Omb+3W6L4XLdGoCP95S11hnWaWaUerv9OVALHAkKkUKTKCBEDdohFs9CK6XENBJofsw2YGmhqEPvAkahhOTYhDNhTBeVhkElx0eeuQpaIeYqPsgCOQVQQSTIQnfMXm8HuIos8OE4QIJfmE9OLBpB7hD2IAPDOF5ZHaKhd4OXBWSWxwxArgBoHI5Hs5Obw9swTpR0PMpK/P5MN/b7mFbaBYMB98hBRiOjx7goWdoaIiK+LEo1ClsWbqlBXq+/CpPv03CQhImdTz6SY5Ne1YkZ2gDOeNnGrO3tTXlpUMwiK7Mzi3tp9YG/roRdXbq5CmrG8vMUoYz3JcE+8pLVSYYKcFzPCmPtpFoIGiBGKafUC54YtYgAgwNjldggtitlmnmDGIoH8RzCCrkAioKeTO5B2oalZyJ4htM8F/qFQoOGyFUXo8NKJN7zrr3bovnFFQC16S6L5L/uI4KkdcrCllSl4Khd0H7hbdw5LUz00v7na5CWe7YOOHCK6YxAgoWBKxS9YfLgKc/DX+oA3oFHAVJsX/217HIMZy6xXJkPdYOX358h98NLywSwwmtBl20xOa9q5LT9dOFkeFoOE4bwzKSS56Q5QfdSgpLrXHseDtz8qwOy9HxG9ph2a01NWhbrlboJbWCg4mFgCnSFy4dUYgrbNz6gZU+YbkSBEDqMalIekrIyKNMfIV8zHSJUGKCk1D5ENBAWLRVGSUwCAaM5zv6CeF314BHQrDg/pCWA9CFVjCZVPHuAFxcozXLpWckaATPUQD+RaHzl44pbEVRwBwLkaJy6h3PGHF5e4UDdUJfXocyARK4X54QJJJbTN5LQRT10LItzf2rq2X0xE9+8YqlaKym4dgT9umxiCUK4BUYvk+zZYHhZPJGQ0E5bfk6nWFMTf2gMHRZp85H0y8H6RhLZr8ytQJTRzUpIKU+nUarPB8I48QZRFpjeyGWKYLojUs7Wg6zgxYFTaYs8xYC5fCA4UM/PYfxvCfxPH7H6/iO5xztRVYWTJIGuwo99B9hFV4Om+lNCU2oUbhJ6AOcAB+t5J3PsIFDLAfTeKU6nIG6cDiOnl6E/67Z6fgBmyVZQciiNZHAuaoI3mAKNKI+cEeQoJfYKKHRvL0QhY6cJl2gFT2oMwKSqwOL8rWUK0eajoCSnOHTpOFM3yHZe6Xhx08cd6a6htAYIdCvwAo7NMeObvA5XPr5IycPayPBWV8Hd+b4OQfOCtU+9eusWoFAVAwT+UelaAdEkbcoUx36KtamoUV+piv59XGJFo6QgefA69CRHuwDj78PHroa0AN6YE46QamHcrx0Qume9WxoVsynYo4PBGTemiPBCmQGC7RjlV8joBxOESYjMn9oXZ0eq21oLm1Uy2QJAzP8vDm6D5ULrccBZuVNr9cDkzmQSLV7/T7qoA3QJvAG1Dwhz9Ttvo9u2DGTra7ADyzWiMijoaLR/AXzfU2/01cwHE9hxXoCcCM5w6c2znMpwXnYwzhcKz0xo3EVKBkxVSXFRdbY2MStr18/o18G5lTEAwcP2HmtduW0434Rn2O30CZgIIGRuEgmBKRFMNQbJ1huYvVNfwayOFmUJQWC6/xVMZu+mJMXB/EClP4NJdg+PCHE7silqOibDPWMhMDgnIZv7UrVHnIOC+J4EYQdawKxYxVeE3+izfUHYieZ+O95k75MiWfuIAoO7aWN9N2XBL9L+/aKRUuWHjtasRKHHWA5flQsofHXqoCRE/SkDay/511gLit+s+2aq6/x3TWAid1JEMgorHpOHw7De7UADqRbW/erDz/uMfEgyWKOakRO+QWhhoYGr4SVpRyiw/FaeyUkrMooLNShPVq5gcYGhoffD4uVBj0EmZSWi7m0JmpcGBEEJwYCQQxwQPM46J61b2w2JHmf69QSPP4hSFdIAU5oA3igWRCJxL3jJjgwnkN/eM/OFbbnOEE859CfoOVD91x5u5zhMDnsSact4BhTrIt28I5DhRHmiEvM59DEWOrxf/oGfizPjhresaUpSyte6DqAx0kX/ARYXV2d+zARz9i+eH8Fhh/wPpzDdQYzUbmkiY0CMJwKqBiGc8x1S0uLn0vOuSw8RxJZIkyDIzOBReUxAYMEgfiEvixILr8b6h47Ai4N4QCAw4cP++kQbEWKTIz4RZhv9E1+6uYbhiI43FMnMCA6+FJHuQ7xK9J5MjxLZxiwX8+cILy8i/CBGTWQ+viQqId3OMQcaYLgRnzS6eKZxUTyx/bxHWEBA7ygNSdQQW+UjU9TY6N+46XGu5FYFtjDYG3aszI5rSl46UgLgZeTmjzxn6JUo8mMltGbgmhkOBWzdvyYfhCOn5poampyJGAQzIKAEcnXNShFgEgMvoEHQVmhGctGRNmNwkocpJeTkWkkKTaK7wjLX6T9ASb1pwsegssz4PCeD+ers0OF8+DY0Mj7KJQRHM/4pKd0HKgDmDA8ClUUGmDRDoJatAEcSJfXwTPp1rBEHbFu2gndfdNiYb63m/esAeRs2Yqy8kHLABDK8X4Qz71HdyTrRzbL6VC/KbPGsIw1bUxzQghVL62Q6ZAnCJKNkiIKwyAaB8P5tYFJkyalJE19i8pEplFpJDbXMQXYwzWDZ9RBWcpwD8J0H1iRsWPH+mZDGs27wUakCBJh8x0JFGFQJgoFgss1bQAGebBWhw4d8sP1sSIxxTqAR4r38X385jk4AzOd4bFOLAsMh16R4ZfDinW4syzA8Z58wOGeOmC4b83Spsb4DvijUr/+gMBE2JThOt77LyKIFC4VrPT0RYzS8LA4IZixIIWYkQLXZBoZG4dJ55gvziXHzATJDo2nMohJ3tjw2AhgREQQHPIEPyAwnGcxDw2E4WgfP0sVU2wE97Fh8R31xTrJFwlGWxAq4FOGD8TCT0Bwq/TrhXx4RplYRzqs+Iy6IlzaCbNpBzSI3VvMQ728p9tAoMABwUinR7xmuEqK95GGlKc+cKc8Jp081An8Gh1PinW63EIAK+KcUKCEdauB4Xjp2oiA2YHhZKIyvGethxnG8Ng4fjBuz569jjwmBaEQDo4UZdMJEhsQvyMSkbkQCe8TjQZ+enlMOvcIFikyhGvgpDOEZxAh1sM3H/IBn3oQIhLlIDwMb1V3Rh4sCfDTU4TPs4g317F98Zp7mAHTgUmKDOEahlMfI5rL6wg4SsniEEq4xAQ9Ip3IRx380B11eBvUh1fpLFqE6S0Z7sEOQWYoxM4TzI6a5R+YDWJJ/chp1HAaTOV8E9Lbu3ePe+vs6w5BjsDoKMEgBLNiAmESz0kQhLyYKd7B8PQyPGPcz++i8KM15EOiycO7dNgOUH8ibL4j88lHWSwJDAd/3vHNh92mdGdYEfLF58CMOEf48ZvnfKiHD3XQZUCzKFS8BxbPcNrwF2gHbeA5afB7EHDo3ykb8eeb7o46OO2KtfnQisS2qUr5BjiDb8Fw6bc0nATD0aSj2lCoeoREcGiChocjMXHOSEgcCSQYmvE7KUjXmDHj3CJglThNKRJEwKCa31MuNoSGcg2BkVr6uUgo8pHIgyRj1tFOnDcaHYlEHmDwLCbuYQB4RoKhddRBoh7ykwfCkx8hRgNhDL9EDHw+5OM9ie/L6wU+cHiHBYHoXOMXRJwoQz20A4UCF/Ih6KQIE/bjPFMePEhRs/mmLsoWaYjMKnpiHsQ0yEuXh7C9BcPRb0mnmE4okcALCDG0IoFwDEBQCU4b40cIiSBwFiqnH6AZhw8f0tCp1kaPGu1jx9hYggUeCECIUuNlEOdDotE0HoIwBItSzDsaDhwIQh38PBVM43ivSJA4G+Z1UEi1I7yUjQwnL8RAuyE6xANuOnzu0XLaj/DiXMFIyoBbhBXxifgDKwoOggtDeIdQUQ7cKUMe2ko0jzo48B+cyMM78vGBgQEvjY7UBmCxNQpFQOC9n3YecBYd3Zk2VggGDIc2YYGkE8JpQScBXJL6cLEaTisRDty7T6HVYyHwEokBsiSQCwzPGCRYby/x6WDi/bfCJNXsu66qrJKZ4fSI4eY8NpyombBwQtAIGAKjI/GomwSiEAk4fGA6ph1mwBTgRZjk59qJlmI2TOI+MgIY0YJEIsR6Ig50H+fOnfM6ICIEJy+MAa9YDnyBRx2UhdEeARNAnkW4sS3AIR840gYEIlqE2AZgh7ByYBAMd5wlpAr/+Zmz0Av4sW28B25lRVmK4cFiOwL+5y0YfkJOW59vvR2KTAEUhjc0NDjCMIaGxMbwvlcEIMR69sxZ/xUCiAyz0JBINOonLxaFbUY0mDy8R/P4jjAjwhCDFIkCsfjQcHACRtQkYFMeOFyTIlF5HpnEuwjXM+kP93wgJN1UjO7BSNrAJ8LkGxqQKAMuvIdh6XVH4eAZ+aI2wyDgY9GAzwc6xPzgSh3gQj3kpw7ykScqBvWT950x3BckiHmiT+s+foI5xNIBBIIgyjXmAobzDMLFxFnneu3Pkc5OncoQiQWxKQuM2GAQzlTjwt7zEHEDHkQh8T42PDIGGPEdzzCL6c4d9QA/vSxE4Hl8R9dDWUw+8GLedNjUEfKY1wFDYGRsA+9jO8gHk6JAkIcPz+M1eeMz6MY19QITZmJt6OspA768pwyJfJH+tIEyJMrFOrinDJNC5XLkgkl/Cw1nDlskHjTpcfJEcAYrpIJo0kHscgmjH3XnjkL6D/PSJR3EQJ6yTmg1KjqLwKYR6Yk8pHQCROLxnPeU4ZNeD3mog+9ILPLGPCESGLSfPLyj/nhNfTHxDPi0lfKkiE9sR9RKYACL91zHFJ9xH6+BS54oSJGWEUfex/zUk14H5dLhk49yKE9ZaRjfJ9DcYekKJl2y6U5bWPEyZNIj0Wg4jlUYegUTTEWRYMDnngYzdQfSlOVZbGAkljLJvwxecSRCfBcbS6PiM75J8V18Th6e8QG/mOJ77iMcriMcvvnEuvkmpd/zHmLHMlxHWLFsLBMFAsbwjjaTwAuYfChLinXFa/LwLuaL74HDc96TuKaNMV/6O+rDseY4E5TyHTN8cBFjqtFUQmUAg+FRMiORQSo2EkuRcjc8H8SIjUpvGKdNYApig9IbhaBQJzAjoWMDec57CMKH8jzjfTp84FE+1g2ulCOBE9e8izAC0cJ78gCLFPNQBx/ypyfuY/3xPc8oT1YYEXGI8CLMCIu8tJPy4MZ3xJVvcCcPH8ryibTnm/yYdKavvY9/pxr+VgynP0lHloaADInJeZw3Eo2gAXyTn483VoyOwZ70hoB4FBwaGsvwHc1abCB50z/UR76IR7xGOIEZmUyZSKxYB2UigYFDIh8w+I735OMZeeN1zBfveR+YQj0waKjLAE4QgCBY5E2vAxgRXsQnCgDveEZbYhnq4TnPMOkwHN78b9XwCRMmONCIXJQ2GMLqEukblHekYDTEjQSKxKPhnILsixuVNzYSxJmZg8Y8AzbOXGQ25bgO+YJm0/j0FPHiGXXzPubn2eUCmI5bej3kJQEPPEiR0PEbuCTypDMjvmfW0BdwKB/PoAcf/IiUHA2W5T0p0oJr4FIHsOM9z0jkp33gHJ5piZNM+r8KwzEbJN+hom/uGY9TOb875ov+hL/0TQzTz1PoOXJAY/iwQIItMjQEYoI8SNPmvr4e+QolDpM6GA8zXMN/CGWDE8Uyp+CAIVwQIZrbIQECXtQwYA3VE35ThV9QgqD81DRjYvAHH/CiLq7Bi3vKRgbDNJ7TDvCA8LwjP+W45hldIHl5zi8x8fOZzpAUHYAbmEVdwZJQD/mBASxwCiMi3gehiO1AeGMsAjil+qXkd8xwIm0EN4hU8aHCSGiIjobDYBry058+oZMQN3jEiAUSHHrLEI3VF4F5/MJgiMEDh8TUH0EXJmxGjRqlXwMe41rHj8fCOA7amzB+gjU0NDgxV61ebc8//6wapl88UCAnMBGm8An9Hs9CGjLpEBx8x42r91cIjegnAoexeH39OF+uBXG3bt1iL7zwQuj/hB/9IV1BzO8Mh8FamEFki3uGUywYrK9vdPgIDDThA7NgwOTJkz14A/04MXLNmjUSgnA+K8+CMNBvYwURLhxZfpkpHA5MexsbmxwP8A8TUyhR8Iv46c0JEyfKO9fSMtG0QKtgGKsHexQoEv4GReN6WKQtHvlx+tTpVOVBgpGoSEAYTkP5DZLvfe/7tnnzJquoLHfkJae+iC9Hq0ThAQz0Q/eYeWMRRYoxNJTFfKyZnjJV55IpwsdJxTRqQI2fNn2mjRNDcnSs1vJV+qWCJ5+wIkkv4UMmCVAGTD/MQrNFH/VbWIrgqMGQGCeYKvgwjv6UECTtQPiam5vFrHGCmW1bxHDOZ4/ROJjBR3sYXEAhFLCBE74TznDaML5pgkxpiWsvQkK9tA9YzDswSUJatmyZLVnyqsbJaL3aIRyAxe4WNJW2IMBBWMKcNzSZOHGSh1IRBOCCP8LEur5C9dkTJzbrd1m1ZFzPYHZ+yvp6pfwBb33RHpIYfvnkyV4tW9LOEzEBDYd4JJiOiaIRMJzKH3nkx7Zp80Y9D3O7mDdWmMLwWAHVET+PDAEODeYZi//r6+vdIly8oMV90hqEZtrUaa79wFuzbo09/fOnRFQt+pNE09CwmjY0QAbdHUXqwbIDP34gHlOdxJ7RQASK9kBsRhtxGpSjup988klnUtBsYQHOajp1kWgPcGMCNvgSQh4xYrRrKe9dUMQ8rCBti/P3K1assOXLlw6aeXAARhDagDc0JSEAMJZoH5M4WMLYJpjNNWHrfAkVClimc10RZoTsdQwXPCZTIj+c4axrRhIwKSxTPiUNp0Lal45QZDiSxAF3jzzyiG3eslkEDb8pBrFgJkSlHB9gUBmMBD7IsqwWhadh/ORFdVW1azhMydPR0FMmTbHqmmoRLdfWrl/rDOf3x+ifgA1h+KbxEI1ZOcwgWk8C98gg5p0hGHUR0SLBjMbGRl8SBBwYzo/qxFBwwB1BpT+NlsSL+h/aQAIe08Hjmyb6PT/ngVBSHlzpTmAYaeXK5bZixXJnOMymDeBPXnAAJtck8KddMBxcGxoaXEixHrEM8PPcijTqR3PDOr8rMhz6C+Ygw/u0AAIgJDSEyRPWtHXrQDwQiUiAAH1i0HBi5JnOcPq/0rISbyAMRzNAPjKF6riH4fHaGSRi8lNTTE6MqatT4y5pKbJOGNbS3cliOEdbc+Lgho3r7Re//LlMYYHXAdxIHBckCRN4cmg8AsUzCBbbhJCyaAKGx4UVhB/rpX1Ms0aGP/vssx6W9DZLeKgb1aD9kVhOJP2JsAnv0pampmZvL7+5jubA9AJNIGFBAsMTtnr1Kv9E/yeY9CA4sY6IO/WALwwHH6wR5WB4pC1dG+vaEFysH0vMr8hwwVILAOkp4Qx3WxgYTiydZcpDDB/SGhhO5QDO0RLZRx99TCZ9kxyqYjFDPyQvqXNzLfhoRmgU41BZC/YZpSp2hgsszhtThKzFOn/+oq/XhuETmyeFBQJi7oaN6+yXz/7CN8W5QyIG0GhgR2GEUL5zVc9JCGfUEuBDeLQRgvEOIYDhTLFC0K1bt9pzzz3nzwPx0VBGFkGAHKj+UA/lYTjXLO/iFMkm9eMIInXCKHBDQFkBFObVM2zt2rX+4R1lh7qO0J7I9Njt0F3AcPI1NDQMMhxcgMHEU4Hq4F2J2kP3+0YMv8yk64B8AfEtp2II53sfPnxYxKEfCevMaAhEpi+kAjTkcpOOBIIIZpgEAdQulUPD5TDRa6giGgaRVZWCL/oVI60uwazTh6MxbGdqnjDRn2FF1m1Yb88+94waI4fEu5JgCiEECQYAk77W97RLw3gGvuCNBakXc9FuugzeQRjaAcMhPqtuf/nLX6YEGStFPF5+htAELveU40N+4PLNaIYuY2LzZHdOuwSfemlf0PAxvrQaq7d27Tpp+GqnC7hDq5gX+MADPsLEcxjPjCC44u0Dk/c8RynQbrYSceh/iZxGLAs8eBt9+BDD2Qpz5sw5X/VCf4SJBJmIRDrDs7Wl5oc//B/y0jdaTW21MwMNp3Ewm3IhoeEMl9R/p+A5AaX1TJ5gMUbIfJ/RlCpeaa5+Ubh5QrMznB+NWb12jT3z7C/VneAY6vRjMR3ixOTCoxt6pYT+QRQIhqah0fViNiadhQ0wnLLgCcPTTfrTTz/tXVa0IgyT2PkITSgDDQgUsacN2NHkIjRNTeO9XrSSfOCEzzFGlgWnjfYyJFuxfJUzibhEpBG4Aj/WEXFnGRQ4owx0oyQEjfYFDddxoanuKvbh4P6WDO9ly6c0jz+css9veO/YucNN7BDTQr/FIB9CoeH0U9///vds7bo1ItwomcNiSRjrpMNiAMrSCLXHGQAz2PnohJP54ajnIg0rpkyZ4kieO3te0stPS2b5UKe2doTMWbYtWf6aHKqnZRqr3PvnB+eidgCfazxUGE7PhAZETQCHWbNmeXAC4vEcRsHw+voGmdzQh7Na9amnnvJ8aEnAXQIkDYcmQt3xBneIjiAx/Qtz2O0B07EgwCcPeEF8uhIYjgCsWrXKli5ZnqJdWCMwRCNsbEjAQDBDeLvftRvBpE7g8k0dtIFhWb0Emh/iBRe89nw9vzwNM+k631yKJyRhkC+X0WaEvSxk5IzwoElUBCLDGZ5pDz/8sC1Z+qr3w0THOKU4euk0knLACJEwaYzgQzD2cOWoj0Tz+HAqMofVc8Q1wzcckVppPQx/9bVX7LEnHtPPVYzw4VuOGoRJRENoOERDXOky6Md4Rt8HYxkDz9bvmxCUIKDDO54jJBAK7x04W7Zssccff9w1HGF2+MKfH9jDpFMufqAD2kcEkN9JheFYPubNwSXmg+H04ZHhK1astNdeXeI0dA1VvdQNjWAWZYGNwAIbgWK5NOv9Wd2D9YDJMNzNuq4LNByGfuUKvFAvdZIncG2I7ZcxvBclVCb1gZq05CA9+nCGZ4FhSHeIYNEwmEG/Qh+OZ/vSSy+qcFgcQWVEgzg5OJgsmI5Wo1l9HnaNEtrQOM4mTZ7ky6E8tNkRJJfTomAGfS+EX75yif3zw//sRA2eelx9giSHfjo0LSHN6PJTk/mpqYqKStfuKg35envR+qSI1uktxVyPHTtODGflaJZt2rTRRxwwGw1nh2o2JxWLGS5Mwh+fBqJC7Dhc4hcU66Td+Dr8RgyOK8KL6cfajR0rp62a88oT+vmMZXIMX1Sfr9WmKWbzDczIcGiDpcAagQfWLwZuEAbyk2C+kHOnDVqVKQoJDH6YD4V4U4ZLu8lLebWNiwxJ1xnbplWoVAKzSbzCuw2RtgI971PkaKlt1LDpUttF11wQgkh5/DisynDN+Bit4ujnLhEL7x1TOpXGjNJvhOldh7Sbd5h93tePa0gxXFGwbRvt0Z88KnMd+kYIQUKwgA9scGFJ1iUdek8fW6b9YeM1VEL6CdSAO8QkWsU11gftg5h0TUQLf/SjH8kkBgsF42EETqNaoTKEM7vl6eP4dbkHzhi7XsQmb6+O0oZWIVIW+lms3SgJA5sDoMvSZcvtOSkI+FN/tFLg7wxQTZhyHFcUBzpjgYBPIg9wohXAIgCjUf07/gL4svmfZ2j05SkIr1ojQKSh9yIiGrezpcUrJyPv8bapPGo4kv/qq69Yy+5dakCGSz1LmzCrnKuC8wZSrtn6hR4aRnkIDSOqKiuE3FCcHt8BOPKUbNzYeu8mMH3bdmyxX734rBgZfmSWBvPhHXgh7XQTNAGCMwzDyRkxYpT3+YFIODwhekUZykJMGI6l2qv5g6eeelIrQ3XEgRgK0cJK2yC04E4dEJU2NDSwaa/WTSiOZB8nXwgnujPykaiXvj06bQzLnn/+eX8HnKAMgbZBaINAUy7ihoLBfBJ4xy6DOsjHh/6d4TLvOc/FTXoaO72w/rwpwyHOntbWwTXaNJ5fzE0fhyP9mPTtO7Z6H0Mj2KqEttKfQYCIIN/0/4xJIQBw8vNzXRtjX08fC8PoM0eN0qa4CsXnpX3bxfDlK5dJz4KXiqZimjGj1ImJJdF/sUQahlNHkYYqCAkwsVKRqOSFoXi/4IOQtbbu9Z++HNBSL7QsmlYsB/hBTL7BmzJl2rAH4xFYfi+tV4cOp7cX4tJmBApcKE80jwmUCBu8wZ9yfAOfLpOuDFoF+CG2ASzykYDFJ/oBtAPBIDFphQV5RxouRfZ0XDsk8F6RIiSKCvktrmjSkeYXXviVJh42ixCpaTm3BjKz/EKfZpYwhyALM2gMjUACIThHgHFYDo0Ns0P8uK3CpprMGKHfE2N8y/2GTetszVoNZ1SOD42F2Qgl15Sn8dTBjNpQHfLmiburDrY+xzZwT/0wrqpKx1LKErGJYsXKFRoSSuBUJwkBiVpON0MZYgGMRgL+oR0clI9/QP6oRZQHJ5iNAIIjDIee1B/xhqbgBZOixtKOyOyI6/+s7N6foziOOICfYwcjUJwAkgH7//83EuVRSdkuqvRDqKIQhYSEZKGHhVxg2XElle+n51p3pwcyA6e9253pd/fM9MzuOqqn+K4d2aADDm3gkHG70cNT8TwA+GJ6hnBPKmCRCgEjkmWbN0MUvBNz1+2dvNwlo0WEIEJINrXyWxnCGct2rTTC4FlLSRxgBGyDIm7sVYyrGeiUwqOMf/zz75P19LGMSjul+3GMawsupp0nLHQwInN6R/TzrBaUejwJDgrXhwu5d5dN+UZChwx8CBJ8CSXRAj9+U5A5uvq6MQrHM3qaRqN4UQEMSZcXL17UgBcfLR91tQEPXPBdd3TOER3gK9q18l3TbTinzp/iVNp+0MMjhHOFA2hjgrB6mqnHkydPSniUAaCRrz6Dd/tIR+7tva6sDyEPJqK1hAn1EUy4RvXteQhy3quXfScMDIwHEMRA8maie1nuE6ZcW/vbXyZbWy/rgTU2VlAg2D4KWJTtowv4PC/5lIWqVyinbr2PNIbRIbRpomxt3Ab97bffRRnPkxeQQRwj4VYIg6BUPOAFzT74tVyrfsCfK4Ty0EZ5vI9SlLW1tbo/zvlWUONQH2zXfMB3hGMY7yyhxGgVbdAvUuENfRRe9Rc0WtXP5fXJZYWPCjx8fX29rE/4NL168MBS4KMQzJP/mynZnzNnPM5UYFhhMRIPFzQYhA0RrWxHwsGMY4YrIW54hIQLLyTcpYzw9b8EYCzwzXffJIX5puBUuzDKEODyG9OMqTww2T9hXMoxV4WrWplDz3wWTBtPesDH2dlPWcn61+Q0O1Kqm4mQpyKqRI5+mvCHwkUR3j08tJQePvmMCGL62YVnM1p1TLVEEPzgf17R6qNHXUpkXHC0UXXdAX822HMe39qShy7TaN35j/TwEWIQ+e/0Oy0oCheiJAFMZYzk19b+GkYz/5y+ShKRw7vtGhl3g2K8rRbzxUgEba5OwZSBmRFFMLEcwsd9ZnLJ65kjezSY/HExE6F0COQ9GDZFMwiUiu3nu3t23BhDUMi4vUg7NBAUDycoBisLZurlbsyBgxrk50Uo3YU7Q8adJRSCf8pRl9GBQ07z3qfvxrd6niyxsbFRkQz/znXRHj0MCm21pyBdh/N+w4FuMuLJzjVuSlac00V545FrH6Xw8FkC0mc8zSBD1kfhrdKdiEPM8fFhWS03IihI6w1FmQ+7ThGYcKSYZrSYSN1E9LSZV/hYkKj3gcbLMeoet6fPnoaJwdRQxgjn4IkCPnBQgiVNuJXxaM6xRi56tOHCzwi1U/b2dvNAg2fDiBIh4KhPuoNbGQOATXE+YMOjL2+lgWfzpjwDxSNWqOcY4FCWvluq1HUwmg9twUWLo9/wuc5YB66RjqZsXZ9rDEtUJSswydmuFw708QoPwYBYuvSWYS+tU24vLWe69LgyOfrS/f29YmTcDTrdVx1iWJewfCeGwTsqFRqvuJUwmJxSEVxdQsJfZFoFMzY7ItYqk6mOsrv7um59EkEw2p82KIJiTI51Lbo2YKxYnme/OsdTCcjyqCND4RkUAZ/xgbc48Tlzct2Mdp+FBpGDIuBwjkJ8dySjAT+ZSPATEXWdn1J4cHCMkmOUtLW1VelYOLWBFw+t7PZu58HPIfQZ8Ar/Y1oo4o4uYxjR3TzfxXgGvBHOMzXTCBUOcwVcH6X6cIR0qdO5yMM3X23lvZq7tap1J/3q6qMMQsKMV0QeHOyX1c4ENUIN6/f0v1JGrLB2tyS8fhrrw0k91LZC+Vh9ogDzalmsJt7WJ8+bcVPjjxk8eloiryFodQiLYAhMe+cZT48JXP8lL4cd13Q/ZzW/pnBtKIMA8MhwzyJMdH5GqVE6/n4XuEtlfCNqtIzA1JYyW/GygCIh2lxv+vymKG9LtnTKEJzTHv1tPI7O+xQPHkEelfhNNeltKpyLVD0+0vX9L8Zk3GGQSy9oRNfF0jidvzRo68qEs729Pdnc3CxAf0wfsZI+HLE+v5y9n7yL11Dg0KUjouMF8WhM+0B2sTCSXwP/pwyY9E0IhY8Aa6pEe6lEWDUFgSNwGjeDaBx9viTkgb0RCmOTZv21ogahj3VqeCicRxQPiSw/hw9FksYzUL0CszZe5vsnyRi2kakDFzp1DwrhguPGi156pXBdRhlhrqlvsYVxWaBq5WqnThuQ3+jDuneHa1d1Ik8zmDFGGGOQYbRJb0fhBmoSNWStvc/FAo6Pcq3CMed+b0kJIO4bsEXpgViDA2/plTjRb5SwUylgY42+LCoIIqWJgfxtRsX6NuEc0xgkKANDpfrOWD7PkwwC2z93rKC9NkGSTsqAq/9MziBdEcM7PDyabL96nWsiiT59CNhgioC0ua1/Tp9ssCOrFhUXDPTBKZ0cBp2tgkZKPj4+Snezd66UilqISqEMq1yUSQn4AI88WxV+++c/eK4pztkJu72zFRzHZbjj7Ajr6lrY6YFwzpaDdMTCU8u4AE7/FL4pfXnZLA0tliYCUkuHVn++fPyoMm2Ytv9ZLvy8v2xWShkjDM1DhFBpglg6j3iWwRLrb4KMNHkfHJ1ehGORwP41YAZqXR9LsBFelK3G6emPeUTIxuRdPN00Ck4j7K+//qqUAQfFVHYt10oFMQ7QSmhoBqvRFQc5ldOeWrz58uXEUxwoWP32MHTjgRJFGr8pn+LQWgbrV8kkhpV//s9klIceHO0nuu4URhFLbkIl0z/9/Re5S5SfGRc9iAHDrf1Vyi4g5/iCJ5WUPl9HCgfAMqCUoLD78PFXNRAjKBa1mr3oY8+5trP2QDU4MJoRgBsP4boR4SirctuvXpWX8wSCwhAcvsNT1j8DX/SV6PIHvMIReBQuF250Xg/Djb/uZvzxamenHkIrlFo+NA7BnyK1OpI5Qx3Er4BZfIA7PceLmy/nrGrtBDaDRSOloluyhREo6OeNjNCeA9GvI1P/1s73Yaj64CwOhb6Do4PJ94mw3DFxtHD0AhaYcC3H8USsQe+M9kJ+4U/r4VJIP78QBiUKKNxa78MkXAxi9EX3ModdyeLGKBBNkdUJQqKSWaGYVnafJSS7Vjc2nmf997QSD5IPFI4GffntTAWLmSn8bnv1cawr9zUj2PfvzybPM9OwEqfbYFT3E0UInQF4puoY6I2wungTXvgIHRcLPhiMtOrB4UGNc4wzKA5PElMKfLybl5eBm5UEXsu35dG/Z3hEmYxxEtp1qSc/nATfaGd8RC6SWtrdi1PowykfTXA23Bm88a3xXKlwjRAv7OrDDZ5WMwcXGgFerdA7HnI7lP1hhUN5kRAtWLb5KcYQixlHwpPVqwSHtgDcWBYVzi9sRtjZfp1R8nF5MgUsRUDwiiDLd+9MoU7HBe3CdfYahU97QOMXS6n7b76fvMlmRjQzKEZLdgyXJ+JHwX8LvU5c80e9jDrqKoc7ODjMBs/R7f0+aeMH6UorzMdgVzLXN3XT5ib4jftahRfiKFeGSGhfWfmyPJd1WdS/W08BNBhC27xKLnt41VgQphbC23jkpZmAIlnBoITEHryZ1zexVenaPxcVzits5jip/hCZFf5Cvwi0snK/lhN5hykfMad/m4OuxdUerhKayIhT2MtvZG2tgYJd6y5JHQbAy9NgDv7VX61l2M2rpi1nJ29P4hRvAj97ADM1tpUMLs5xL9vDlZYP2fX3ujD3p89fqXAXNfax99pdoreSWkSFEPUwCXupTL8XXgtVVF6t8Dnc9VVVSoeDhxMcr1D+kCVIDOmL630jKt9YrlY4QXnunHGIPhWoz0O7bslgB344PkbhlKiQkw8PP0yfaz7cCjYAbeVTtvOXzafALPwxMbBOkZ2G9SqL/yS0n/xwWqN29Adr1ffU5KV4ecENDTeVDyq8G7N+a8KvM/h59y77wQJXyLKX/E62A1XOtv5MNeIQ5L+FNYM2RBisHCef7clPiqmSvtVea7dA6St/i2ekgyjmC0j9IYQhiOPjtxlc5S4RCo7gv/Dwm/ABf6bb01qhesEDZ+1nMMc0ipBrsBVjkRP4OR5nGuicrVDy7hTuNxz+1cBsimke3sXvYzoYZ4tcB/VZz08+waZGEypjKLSTUTLBgW8mkbpkyXAXeJhBd135P65yorSkWTL0AAAAAElFTkSuQmCC;" vertex="1" parent="WIyWlLk6GJQsqaUBKTNV-1">
          <mxGeometry x="295.15" y="260" width="50.77" height="104" as="geometry" />
        </mxCell>
        <mxCell id="H976XYkogMRUlkVDh5GO-1" value="IP network" style="ellipse;shape=cloud;whiteSpace=wrap;html=1;" vertex="1" parent="WIyWlLk6GJQsqaUBKTNV-1">
          <mxGeometry x="140" y="272" width="120" height="80" as="geometry" />
        </mxCell>
        <mxCell id="H976XYkogMRUlkVDh5GO-2" value="IP router" style="text;html=1;strokeColor=none;fillColor=none;align=center;verticalAlign=middle;whiteSpace=wrap;rounded=0;" vertex="1" parent="WIyWlLk6GJQsqaUBKTNV-1">
          <mxGeometry x="290.53" y="364" width="60" height="30" as="geometry" />
        </mxCell>
        <mxCell id="H976XYkogMRUlkVDh5GO-3" value="KNX network" style="ellipse;shape=cloud;whiteSpace=wrap;html=1;" vertex="1" parent="WIyWlLk6GJQsqaUBKTNV-1">
          <mxGeometry x="395.15" y="280" width="120" height="80" as="geometry" />
        </mxCell>
        <mxCell id="H976XYkogMRUlkVDh5GO-4" value="" style="endArrow=classic;startArrow=classic;html=1;rounded=0;entryX=0;entryY=0.5;entryDx=0;entryDy=0;exitX=0.875;exitY=0.5;exitDx=0;exitDy=0;exitPerimeter=0;" edge="1" parent="WIyWlLk6GJQsqaUBKTNV-1" source="H976XYkogMRUlkVDh5GO-1" target="H976XYkogMRUlkVDh5GO-0">
          <mxGeometry width="50" height="50" relative="1" as="geometry">
            <mxPoint x="230" y="400" as="sourcePoint" />
            <mxPoint x="280" y="350" as="targetPoint" />
          </mxGeometry>
        </mxCell>
        <mxCell id="H976XYkogMRUlkVDh5GO-5" value="" style="endArrow=classic;startArrow=classic;html=1;rounded=0;entryX=0.07;entryY=0.4;entryDx=0;entryDy=0;entryPerimeter=0;" edge="1" parent="WIyWlLk6GJQsqaUBKTNV-1" source="H976XYkogMRUlkVDh5GO-0" target="H976XYkogMRUlkVDh5GO-3">
          <mxGeometry width="50" height="50" relative="1" as="geometry">
            <mxPoint x="390" y="360" as="sourcePoint" />
            <mxPoint x="440" y="310" as="targetPoint" />
          </mxGeometry>
        </mxCell>
        <mxCell id="H976XYkogMRUlkVDh5GO-6" value="" style="endArrow=classic;startArrow=classic;html=1;rounded=0;entryX=0.55;entryY=0.95;entryDx=0;entryDy=0;entryPerimeter=0;exitX=0.5;exitY=0;exitDx=0;exitDy=0;" edge="1" parent="WIyWlLk6GJQsqaUBKTNV-1" source="H976XYkogMRUlkVDh5GO-7" target="H976XYkogMRUlkVDh5GO-1">
          <mxGeometry width="50" height="50" relative="1" as="geometry">
            <mxPoint x="200" y="410" as="sourcePoint" />
            <mxPoint x="200" y="400" as="targetPoint" />
          </mxGeometry>
        </mxCell>
        <mxCell id="H976XYkogMRUlkVDh5GO-7" value="" style="image;aspect=fixed;perimeter=ellipsePerimeter;html=1;align=center;shadow=0;dashed=0;spacingTop=3;image=img/lib/active_directory/database_server.svg;" vertex="1" parent="WIyWlLk6GJQsqaUBKTNV-1">
          <mxGeometry x="189.5" y="410" width="41" height="50" as="geometry" />
        </mxCell>
        <mxCell id="H976XYkogMRUlkVDh5GO-8" value="management system&lt;span style=&quot;font-family: -webkit-standard; font-size: medium; text-align: start;&quot;&gt;&lt;/span&gt;" style="text;html=1;strokeColor=none;fillColor=none;align=center;verticalAlign=middle;whiteSpace=wrap;rounded=0;" vertex="1" parent="WIyWlLk6GJQsqaUBKTNV-1">
          <mxGeometry x="160" y="460" width="100" height="40" as="geometry" />
        </mxCell>
        <mxCell id="H976XYkogMRUlkVDh5GO-10" value="" style="image;aspect=fixed;perimeter=ellipsePerimeter;html=1;align=center;shadow=0;dashed=0;fontColor=#4277BB;labelBackgroundColor=default;fontSize=12;spacingTop=3;image=img/lib/ibm/users/sensor.svg;" vertex="1" parent="WIyWlLk6GJQsqaUBKTNV-1">
          <mxGeometry x="470" y="210" width="30" height="30" as="geometry" />
        </mxCell>
        <mxCell id="H976XYkogMRUlkVDh5GO-11" value="" style="image;aspect=fixed;perimeter=ellipsePerimeter;html=1;align=center;shadow=0;dashed=0;fontColor=#4277BB;labelBackgroundColor=default;fontSize=12;spacingTop=3;image=img/lib/ibm/users/sensor.svg;" vertex="1" parent="WIyWlLk6GJQsqaUBKTNV-1">
          <mxGeometry x="517.15" y="364" width="30" height="30" as="geometry" />
        </mxCell>
        <mxCell id="H976XYkogMRUlkVDh5GO-12" value="" style="image;aspect=fixed;perimeter=ellipsePerimeter;html=1;align=center;shadow=0;dashed=0;fontColor=#4277BB;labelBackgroundColor=default;fontSize=12;spacingTop=3;image=img/lib/ibm/users/sensor.svg;" vertex="1" parent="WIyWlLk6GJQsqaUBKTNV-1">
          <mxGeometry x="370" y="240" width="30" height="30" as="geometry" />
        </mxCell>
        <mxCell id="H976XYkogMRUlkVDh5GO-13" value="" style="image;aspect=fixed;perimeter=ellipsePerimeter;html=1;align=center;shadow=0;dashed=0;fontColor=#4277BB;labelBackgroundColor=default;fontSize=12;spacingTop=3;image=img/lib/ibm/users/sensor.svg;" vertex="1" parent="WIyWlLk6GJQsqaUBKTNV-1">
          <mxGeometry x="414" y="220" width="30" height="30" as="geometry" />
        </mxCell>
        <mxCell id="H976XYkogMRUlkVDh5GO-14" value="" style="image;aspect=fixed;perimeter=ellipsePerimeter;html=1;align=center;shadow=0;dashed=0;fontColor=#4277BB;labelBackgroundColor=default;fontSize=12;spacingTop=3;image=img/lib/ibm/users/sensor.svg;" vertex="1" parent="WIyWlLk6GJQsqaUBKTNV-1">
          <mxGeometry x="384" y="370" width="30" height="30" as="geometry" />
        </mxCell>
        <mxCell id="H976XYkogMRUlkVDh5GO-15" value="" style="image;aspect=fixed;perimeter=ellipsePerimeter;html=1;align=center;shadow=0;dashed=0;fontColor=#4277BB;labelBackgroundColor=default;fontSize=12;spacingTop=3;image=img/lib/ibm/users/sensor.svg;" vertex="1" parent="WIyWlLk6GJQsqaUBKTNV-1">
          <mxGeometry x="450" y="380" width="30" height="30" as="geometry" />
        </mxCell>
        <mxCell id="H976XYkogMRUlkVDh5GO-16" value="" style="image;aspect=fixed;perimeter=ellipsePerimeter;html=1;align=center;shadow=0;dashed=0;fontColor=#4277BB;labelBackgroundColor=default;fontSize=12;spacingTop=3;image=img/lib/ibm/users/sensor.svg;" vertex="1" parent="WIyWlLk6GJQsqaUBKTNV-1">
          <mxGeometry x="515.15" y="248" width="32" height="32" as="geometry" />
        </mxCell>
        <mxCell id="H976XYkogMRUlkVDh5GO-18" value="" style="html=1;verticalLabelPosition=bottom;align=center;labelBackgroundColor=#ffffff;verticalAlign=top;strokeWidth=2;strokeColor=#0080F0;shadow=0;dashed=0;shape=mxgraph.ios7.icons.lightbulb;" vertex="1" parent="WIyWlLk6GJQsqaUBKTNV-1">
          <mxGeometry x="570" y="297.15000000000003" width="22.8" height="29.7" as="geometry" />
        </mxCell>
        <mxCell id="H976XYkogMRUlkVDh5GO-20" value="" style="endArrow=classic;startArrow=classic;html=1;rounded=0;entryX=0.75;entryY=1;entryDx=0;entryDy=0;exitX=0.25;exitY=0.25;exitDx=0;exitDy=0;exitPerimeter=0;" edge="1" parent="WIyWlLk6GJQsqaUBKTNV-1" source="H976XYkogMRUlkVDh5GO-3" target="H976XYkogMRUlkVDh5GO-12">
          <mxGeometry width="50" height="50" relative="1" as="geometry">
            <mxPoint x="390" y="360" as="sourcePoint" />
            <mxPoint x="440" y="310" as="targetPoint" />
          </mxGeometry>
        </mxCell>
        <mxCell id="H976XYkogMRUlkVDh5GO-21" value="" style="endArrow=classic;startArrow=classic;html=1;rounded=0;entryX=0.5;entryY=1;entryDx=0;entryDy=0;exitX=0.4;exitY=0.1;exitDx=0;exitDy=0;exitPerimeter=0;" edge="1" parent="WIyWlLk6GJQsqaUBKTNV-1" source="H976XYkogMRUlkVDh5GO-3" target="H976XYkogMRUlkVDh5GO-13">
          <mxGeometry width="50" height="50" relative="1" as="geometry">
            <mxPoint x="390" y="360" as="sourcePoint" />
            <mxPoint x="440" y="310" as="targetPoint" />
          </mxGeometry>
        </mxCell>
        <mxCell id="H976XYkogMRUlkVDh5GO-22" value="" style="endArrow=classic;startArrow=classic;html=1;rounded=0;entryX=0.75;entryY=1;entryDx=0;entryDy=0;exitX=0.625;exitY=0.2;exitDx=0;exitDy=0;exitPerimeter=0;" edge="1" parent="WIyWlLk6GJQsqaUBKTNV-1" source="H976XYkogMRUlkVDh5GO-3" target="H976XYkogMRUlkVDh5GO-10">
          <mxGeometry width="50" height="50" relative="1" as="geometry">
            <mxPoint x="390" y="360" as="sourcePoint" />
            <mxPoint x="440" y="310" as="targetPoint" />
          </mxGeometry>
        </mxCell>
        <mxCell id="H976XYkogMRUlkVDh5GO-23" value="" style="endArrow=classic;startArrow=classic;html=1;rounded=0;entryX=0;entryY=1;entryDx=0;entryDy=0;exitX=0.88;exitY=0.25;exitDx=0;exitDy=0;exitPerimeter=0;" edge="1" parent="WIyWlLk6GJQsqaUBKTNV-1" source="H976XYkogMRUlkVDh5GO-3" target="H976XYkogMRUlkVDh5GO-16">
          <mxGeometry width="50" height="50" relative="1" as="geometry">
            <mxPoint x="390" y="360" as="sourcePoint" />
            <mxPoint x="440" y="310" as="targetPoint" />
          </mxGeometry>
        </mxCell>
        <mxCell id="H976XYkogMRUlkVDh5GO-24" value="" style="endArrow=classic;startArrow=classic;html=1;rounded=0;exitX=0.875;exitY=0.5;exitDx=0;exitDy=0;exitPerimeter=0;" edge="1" parent="WIyWlLk6GJQsqaUBKTNV-1" source="H976XYkogMRUlkVDh5GO-3">
          <mxGeometry width="50" height="50" relative="1" as="geometry">
            <mxPoint x="390" y="360" as="sourcePoint" />
            <mxPoint x="570" y="310" as="targetPoint" />
          </mxGeometry>
        </mxCell>
        <mxCell id="H976XYkogMRUlkVDh5GO-25" value="" style="endArrow=classic;startArrow=classic;html=1;rounded=0;entryX=0;entryY=0;entryDx=0;entryDy=0;" edge="1" parent="WIyWlLk6GJQsqaUBKTNV-1" source="H976XYkogMRUlkVDh5GO-3" target="H976XYkogMRUlkVDh5GO-11">
          <mxGeometry width="50" height="50" relative="1" as="geometry">
            <mxPoint x="390" y="360" as="sourcePoint" />
            <mxPoint x="440" y="310" as="targetPoint" />
          </mxGeometry>
        </mxCell>
        <mxCell id="H976XYkogMRUlkVDh5GO-26" value="" style="endArrow=classic;startArrow=classic;html=1;rounded=0;entryX=0.5;entryY=0;entryDx=0;entryDy=0;exitX=0.55;exitY=0.95;exitDx=0;exitDy=0;exitPerimeter=0;" edge="1" parent="WIyWlLk6GJQsqaUBKTNV-1" source="H976XYkogMRUlkVDh5GO-3" target="H976XYkogMRUlkVDh5GO-15">
          <mxGeometry width="50" height="50" relative="1" as="geometry">
            <mxPoint x="390" y="360" as="sourcePoint" />
            <mxPoint x="440" y="310" as="targetPoint" />
          </mxGeometry>
        </mxCell>
        <mxCell id="H976XYkogMRUlkVDh5GO-27" value="" style="endArrow=classic;startArrow=classic;html=1;rounded=0;entryX=0.5;entryY=0;entryDx=0;entryDy=0;exitX=0.31;exitY=0.8;exitDx=0;exitDy=0;exitPerimeter=0;" edge="1" parent="WIyWlLk6GJQsqaUBKTNV-1" source="H976XYkogMRUlkVDh5GO-3" target="H976XYkogMRUlkVDh5GO-14">
          <mxGeometry width="50" height="50" relative="1" as="geometry">
            <mxPoint x="390" y="360" as="sourcePoint" />
            <mxPoint x="440" y="310" as="targetPoint" />
          </mxGeometry>
        </mxCell>
        <mxCell id="H976XYkogMRUlkVDh5GO-28" value="Sensor" style="text;html=1;strokeColor=none;fillColor=none;align=center;verticalAlign=middle;whiteSpace=wrap;rounded=0;" vertex="1" parent="WIyWlLk6GJQsqaUBKTNV-1">
          <mxGeometry x="435" y="420" width="60" height="30" as="geometry" />
        </mxCell>
        <mxCell id="H976XYkogMRUlkVDh5GO-29" value="other devices" style="text;html=1;strokeColor=none;fillColor=none;align=center;verticalAlign=middle;whiteSpace=wrap;rounded=0;" vertex="1" parent="WIyWlLk6GJQsqaUBKTNV-1">
          <mxGeometry x="551.4" y="326.85" width="60" height="30" as="geometry" />
        </mxCell>
      </root>
    </mxGraphModel>
  </diagram>
</mxfile>
